<?xml version="1.0" encoding="UTF-8"?>
<svg id="Layer_1" data-name="Layer 1" xmlns="http://www.w3.org/2000/svg" viewBox="0 0 1150.89 329.14">
  <defs>
    <style>
      .cls-1 {
        font-size: 70.37px;
      }

      .cls-1, .cls-2, .cls-3 {
        fill: #f1ee82;
      }

      .cls-1, .cls-3 {
        font-family: BenguiatProITC-MediumCondensed, 'Benguiat Pro ITC';
        font-weight: 500;
      }

      .cls-4 {
        letter-spacing: -.06em;
      }

      .cls-5 {
        letter-spacing: -.06em;
      }

      .cls-6, .cls-7, .cls-8 {
        fill: none;
      }

      .cls-7 {
        stroke-width: 3.4px;
      }

      .cls-7, .cls-8 {
        stroke: #f1ee82;
        stroke-miterlimit: 10;
      }

      .cls-8 {
        stroke-width: 3.7px;
      }

      .cls-9 {
        letter-spacing: -.06em;
      }

      .cls-10 {
        letter-spacing: -.02em;
      }

      .cls-3 {
        font-size: 26.36px;
        letter-spacing: -.06em;
      }

      .cls-11 {
        letter-spacing: -.09em;
      }
    </style>
  </defs>
  <g>
    <text class="cls-1" transform="translate(296.08 274.56)"><tspan class="cls-11" x="0" y="0">V</tspan><tspan class="cls-4" x="29.2" y="0">isual Se</tspan><tspan class="cls-10" x="222.07" y="0">r</tspan><tspan class="cls-5" x="244.8" y="0">vice Cent</tspan><tspan class="cls-9" x="469.69" y="0">r</tspan><tspan class="cls-4" x="488.97" y="0">e</tspan></text>
    <text class="cls-3" transform="translate(830.71 276)"><tspan x="0" y="0">©</tspan></text>
  </g>
  <g>
    <g>
      <g>
        <g>
          <path class="cls-2" d="M381.79,116.16c2.6-.3,4.53,1.08,5.48,3.34,2.24,5.72,4.19,11.61,5.98,17.5,2.47,8.53,7.08,15.72,13.66,21.35,1.38,1.31,4.59,3.13,4.41,5.4-.45,2.33-3.11,3.72-4.87,4.99-1.5.91-2.95,2.03-4.63,2.66-7.26.54-15.66-14.45-19-20.25-3.1-5.66-5.6-11.56-8.34-17.35-4.72-8.08-4.56-16.5,6.81-17.58l.51-.04Z"/>
          <path class="cls-2" d="M400.95,85.4c-.63,16.32-17.87,24.82-31.44,29.73-.61.23-1.18.51-1.71.63-2.03.51-2.79-2.65-1.3-3.77,1.82-1.39,3.74-2.86,5.01-4.85,1.92-2.89,5.05-5.93,5.83-9.59,1.2-4.94-.69-10.16-3.34-15.09-.91-1.87-3.62-3.48-2.91-5.74,2.1-4.03,6.15-7.2,10.47-8.68,2.26-.96,5.06-1.86,6.72-.56,5.04,4.45,9.92,11.43,12.59,17.48l.07.42Z"/>
          <path class="cls-2" d="M349.13,107.1c1.08,10.59,1.69,21.37-1.79,31.64-1.54,6.11-3.2,15.29-11.48,14.12-2.83-.49-2.69-3.16-2.84-5.48-1.36-19.05-1.48-38.41-.64-57.47.4-3.01-2.2-7.45,1.28-9.12,3.34-1.26,10.46.71,12.26,3.31,3.56,6.77,2.2,15.17,3.19,22.56l.03.44Z"/>
          <path class="cls-2" d="M362.51,170.31c-11.37.49-22.61-1.7-33.88-1.01-.77-.09-1.66-.2-2.23-.78-.72-.65-.88-1.88-.41-2.73.97-1.84,3.45-1.69,5.12-2.55,1.76-.84,3.16-2.18,4.76-3.33,7.38-5.3,16.13-3.34,24.47-2.09,4.02.75,8.07,1.48,12.01,2.59.77.26,1.37.59,1.6,1.09.5,1.47-1.48,2.99-2.38,4.02-2.35,2.43-4.93,5.31-8.62,4.79h-.43Z"/>
          <path class="cls-2" d="M347.8,64.78c7.24-.43,14.92-.39,22.1,1.04,1.43.86,1.83,3.32,1.06,4.32-.6,1.15-3.25,1.22-4.54,1.91-1.1.64-2.18,1.65-3.33,2.35-9.7,6.09-20.59.45-31.09,1.52-3.35-.29-8.44,1.1-11.14-.94-1.24-1.88-.82-4.94.99-6.76.92-.72,1.22-2.19,2.16-2.66.75-.32,1.93-.22,2.9-.33,6.08-.36,12.22-.78,18.3-1.11.77-.01,1.66.32,2.26.59l.33.06Z"/>
          <path class="cls-2" d="M348.38,66c-.39-.25-.79-.51-1.18-.76.39.25.79.51,1.18.76Z"/>
        </g>
        <g>
          <path class="cls-2" d="M725.44,116.72c2.6-.23,4.5,1.2,5.38,3.48,2.09,5.77,3.88,11.72,5.5,17.65,2.24,8.59,6.66,15.9,13.08,21.71,1.34,1.35,4.51,3.26,4.26,5.51-.51,2.32-3.21,3.63-5,4.86-1.53.87-3,1.95-4.7,2.54-7.28.35-15.26-14.86-18.45-20.75-2.95-5.74-5.28-11.7-7.87-17.57-4.5-8.2-4.12-16.62,7.28-17.39l.51-.03Z"/>
          <path class="cls-2" d="M745.42,86.48c-1.07,16.3-18.53,24.33-32.22,28.87-.61.22-1.19.47-1.72.59-2.05.46-2.72-2.72-1.2-3.8,1.85-1.34,3.81-2.76,5.14-4.71,2-2.84,5.21-5.79,6.09-9.43,1.34-4.91-.41-10.18-2.93-15.17-.86-1.89-3.53-3.57-2.75-5.81,2.21-3.98,6.34-7.04,10.7-8.4,2.29-.89,5.11-1.72,6.73-.37,4.92,4.58,9.61,11.69,12.12,17.82l.06.43Z"/>
          <path class="cls-2" d="M693.03,106.78c.8,10.61,1.12,21.41-2.64,31.58-1.7,6.07-3.61,15.2-11.86,13.81-2.81-.56-2.61-3.23-2.7-5.56-.84-19.08-.44-38.43.91-57.47.48-3-2-7.51,1.52-9.08,3.37-1.17,10.44.99,12.17,3.63,3.38,6.86,1.79,15.23,2.58,22.64l.02.44Z"/>
          <path class="cls-2" d="M704.71,170.33c-11.38.19-22.55-2.31-33.84-1.92-.77-.11-1.65-.24-2.2-.83-.7-.67-.83-1.9-.34-2.74,1.02-1.81,3.5-1.6,5.18-2.41,1.78-.79,3.22-2.09,4.84-3.2,7.52-5.1,16.22-2.91,24.52-1.43,4,.86,8.03,1.7,11.93,2.91.76.28,1.36.63,1.57,1.13.46,1.48-1.56,2.95-2.49,3.96-2.41,2.37-5.07,5.18-8.74,4.55l-.43-.02Z"/>
          <path class="cls-2" d="M692.84,64.45c7.25-.24,14.93.01,22.06,1.64,1.4.9,1.74,3.37.94,4.34-.63,1.13-3.28,1.13-4.59,1.79-1.12.61-2.22,1.59-3.39,2.26-9.86,5.83-20.6-.1-31.12.69-3.34-.38-8.47.88-11.12-1.24-1.19-1.91-.69-4.97,1.17-6.73.94-.7,1.28-2.16,2.23-2.6.76-.29,1.94-.17,2.91-.25,6.09-.2,12.24-.45,18.32-.61.77,0,1.65.37,2.24.65l.33.07Z"/>
          <path class="cls-2" d="M693.39,65.68c-.39-.26-.77-.53-1.16-.79.39.26.77.53,1.16.79Z"/>
        </g>
        <g>
          <path class="cls-2" d="M943.81,117.57c2.61-.12,4.44,1.38,5.24,3.7,1.85,5.86,3.39,11.87,4.77,17.86,1.89,8.68,6,16.16,12.18,22.23,1.29,1.4,4.37,3.44,4.03,5.68-.6,2.3-3.36,3.5-5.19,4.65-1.56.8-3.08,1.82-4.8,2.34-7.28.05-14.64-15.48-17.58-21.49-2.71-5.86-4.8-11.91-7.14-17.88-4.16-8.38-3.43-16.77,7.99-17.08h.51Z"/>
          <path class="cls-2" d="M965.01,88.18c-1.73,16.24-19.52,23.55-33.38,27.52-.62.19-1.21.42-1.75.52-2.07.37-2.6-2.83-1.05-3.85,1.91-1.26,3.92-2.6,5.33-4.49,2.12-2.75,5.44-5.57,6.47-9.18,1.54-4.85,0-10.18-2.31-15.28-.78-1.92-3.38-3.72-2.51-5.92,2.37-3.88,6.63-6.77,11.04-7.95,2.32-.8,5.18-1.51,6.74-.1,4.73,4.78,9.12,12.08,11.38,18.3l.04.43Z"/>
          <path class="cls-2" d="M911.84,106.31c.36,10.63.23,21.43-3.94,31.44-1.95,5.99-4.23,15.04-12.41,13.31-2.79-.68-2.47-3.33-2.47-5.67-.06-19.1,1.14-38.42,3.27-57.38.6-2.98-1.69-7.58,1.89-9.01,3.42-1.03,10.39,1.42,12.01,4.13,3.1,7,1.16,15.29,1.65,22.73v.44Z"/>
          <path class="cls-2" d="M920.9,170.28c-11.38-.28-22.44-3.23-33.73-3.3-.76-.14-1.64-.31-2.17-.92-.67-.7-.75-1.93-.22-2.76,1.1-1.77,3.56-1.45,5.28-2.19,1.82-.72,3.3-1.96,4.97-2.99,7.72-4.78,16.32-2.24,24.55-.43,3.96,1.02,7.95,2.03,11.8,3.4.75.32,1.33.69,1.52,1.2.39,1.5-1.68,2.88-2.65,3.85-2.51,2.26-5.28,4.97-8.92,4.19l-.43-.04Z"/>
          <path class="cls-2" d="M913.39,64c7.25.06,14.91.62,21.98,2.54,1.36.96,1.6,3.44.76,4.38-.67,1.11-3.33.99-4.66,1.6-1.14.56-2.28,1.5-3.48,2.12-10.09,5.42-20.58-.95-31.12-.59-3.32-.51-8.49.53-11.06-1.69-1.11-1.96-.49-4.99,1.45-6.68.96-.66,1.37-2.1,2.33-2.51.77-.26,1.94-.09,2.92-.13,6.09.05,12.25.05,18.33.14.77.04,1.64.43,2.21.74l.33.09Z"/>
          <path class="cls-2" d="M913.88,65.26c-.38-.28-.75-.56-1.13-.84.38.28.75.56,1.13.84Z"/>
        </g>
        <g>
          <path class="cls-2" d="M783.35,87.86c.2,3.11-1.85,5.58-2.5,8.65-1.74,8.21.3,18.04,2.77,25.96,2.33,7.47,8.48,17.15,15.58,20.32-.47-2.32.55-4.73.55-6.84,0-1.99-.71-4.12-.56-6.64.22-3.85,2.16-9.55,6.88-8.25,5.53,1.52,2.3,8.17,2.09,12.1-.3,5.77,2.22,8.1-5.26,10.19.85,4.28,7.56,6.23,11.2,7.29,10.07,2.92,16.52,2.38,26.51-.2,1.86-.48,8.58-3.9,8.79-.77.23,3.42-9.8,11-12.7,12.63-13.91,7.83-27.88,9.57-42.08,1.46-23.97-13.7-36.3-50.79-15.76-73.16,1.29-1.41,2.4-3.15,4.49-2.74Z"/>
          <path class="cls-2" d="M809.83,82.99c-2.41,5.11,3.33,13.6-4.04,15.35-.89.02-.67-.07-.94-.72-1.65-3.88,2.72-10.28,2.26-14.71-6.38-.44-12.51.31-18.66,1.58-1.35-.69-1.02-1.85-.37-2.99,1.64-2.88,10.06-9.82,13.07-11.67,17.46-10.76,26.01-.07,43.72-1.21,2.23-.14,10.91-3.25,8.84,2.04-2.59,6.65-15.59,12.29-22.02,12.82-7.27.6-14.61-.74-21.86-.49Z"/>
          <path class="cls-2" d="M787.74,109.45c1.18-1.13,8.12-3.64,10-4.16,13.16-3.6,27.37.08,40.82-.98l1.61.52c1.91,2.11-.29,4.34-1.89,5.82-5.39,5-13.07,4.33-19.73,5.29-6.47.93-9.24,1.54-15.89,1.55-4.88,0-9.71.53-14.57.32-3.34-.85-2.18-6.62-.34-8.37Z"/>
        </g>
        <g>
          <path class="cls-2" d="M235.12,74.97c-1.88-1.86,2.02-5.31,3.67-6.2,6.99-3.77,10.67-.68,15.71,4.13,23.81,22.75,25.36,59.59,39.56,86.81,2.53,4.84,5.73,6.8-1.52,10.54-8.62,4.45-13.32-.29-16.6-7.81-7.89-18.06-12.87-38.28-19.52-56.85-4.21-11.75-7.95-20.68-17.88-28.82-1.04-.85-2.85-1.22-3.42-1.79Z"/>
          <path class="cls-2" d="M217.79,149.4c9.62-1.5,25.15,4.18,34.77,6.74,3.66.97,8.21,1.1,11.3,3.01,1.71,3.3-7.62,7.27-10.04,8.12-5.81,2.04-19.07,1.79-25.02-.02-7.62-2.32-10.25-4.83-19.41-3.71-2.01.25-7.58,3.14-6.77-1.77.88-5.32,10.07-11.57,15.16-12.37Z"/>
          <path class="cls-2" d="M216.28,143.77c2.91-9.37,8.69-17.43,13.29-25.99,4.39-8.18,4.49-10.17,10.9-17.67.98-1.15,1.02-3.34,3-3.01.59.18,1.03,1.5,1.1,2.11.35,2.9-6.7,13.92-8.43,17.46-3.86,7.9-7.1,16.19-11.15,24.01-.53,1.63-8.1,3.66-8.71,3.1Z"/>
        </g>
        <path class="cls-6" d="M85.36,77.81c-.63-3.49-3.68-6.12-6.75-8.19-3.06-2.08-6.44-4.02-8.33-7.08-1.83-2.97-1.88-6.97.35-9.68,2.13-2.59,5.84-3.6,9.33-3.75,3.49-.15,6.99.41,10.48.23,3.73-.19,7.36-1.21,11.07-1.6,3.71-.39,7.76-.06,10.69,2.1,2.06,2.91,2.59,6.51,3.06,9.98.35,2.53.69,5.05,1.04,7.58"/>
        <g>
          <g>
            <path class="cls-2" d="M444.41,155.47c-.33-.21-.4-.65-.41-1.04-.19-5.71,3.05-12.26,3.91-18.04.92-6.18,1.44-12.43,1.57-18.67.23-10.45.22-23.3-5.45-32.52-2.01-3.28-4.87-3.5-5.99-5-2.23-3.01,3.09-7.08,5.52-8.31,9.04-4.58,13.01.07,19.18,6.17-2.45,10.19.75,20.84,1.21,31.17.32,7.24-.19,34-4.41,39.04-1.42,1.69-3.62,2.18-5.26,3.53s-2.14,3.04-4.52,3.29c-1.5.16-3,.32-4.5.47-.29.03-.61.06-.85-.1Z"/>
            <path class="cls-2" d="M467.43,76.18c1.75-5.2,10.77-9.16,15.79-10.86,8.34-2.82,14.17-3.82,21.3,2.09,13.87,11.48,14.14,33.03-2.8,41.66-1.42.72-7.39,1.65-8.2.06-.76-1.5,1.9-4.45,2.6-6.2,4.65-11.54-.88-24.18-13.28-27.04-5.6-1.29-9.86-.43-15.41.29Z"/>
            <path class="cls-2" d="M494.08,116.69c14.21-.48,31.03,12.43,25.66,27.84-.9,2.6-7.25,11.65-9.58,12.4-6.8,2.18-3.23-4.34-3.29-7.17-.3-14.02-15.57-22.29-27.87-23.83-1.98-.25-11.28.64-5.65-3.04,4.01-2.62,15.93-6.05,20.73-6.21Z"/>
          </g>
          <path class="cls-2" d="M491.58,169.42c-.93-.04-1.87-.05-2.83.2-.43.11-.86.25-1.3.23-.37-.01-.73-.13-1.1-.18-.88-.12-1.77.16-2.64.34-1.32.27-2.67.31-4.01.32-3.63.03-7.26-.17-10.87-.59-1.85-.22-3.7-.49-5.57-.48-2.93.01-5.88.73-8.76.21-1.17-.21-2.33-.62-3.51-.5-.93.09-1.81.51-2.74.66-.87.14-1.76.05-2.64-.04-1.83-.19-3.65-.38-5.48-.56-.35-.18-.4-.74-.1-.99.6-.48,1.5.66.37.89-.32.07-.96-.17-1.31-.19-.52-.03-1.1.09-1.62-.01-.76-.14-1.64-.31-2.17-.92-.67-.7-.75-1.93-.22-2.76,1.1-1.77,3.56-1.45,5.28-2.19,1.82-.72,3.3-1.96,4.97-2.99,7.72-4.78,36.69-4.95,44.92-3.14,3.96,1.02,7.95,2.03,11.8,3.4.75.32,1.33.69,1.52,1.2.39,1.5-1.68,2.88-2.65,3.85-1.69,1.53-3.44,3.25-5.65,3.99-1.23.41-2.46.31-3.71.26Z"/>
        </g>
        <g>
          <path class="cls-2" d="M113.17,134.97c18.39-1.12,34.51-15.24,53.67-12.18,2.72.64,7.07-1,4.82-4.05-11.28-13.51-23.28-16.65-40.96-9.7-13.35,5.1-26.73,10.6-40.15,15.15-1.76.74-3.63,1.94-3.91,3.21-.16,1.73,1.97,2.62,3.54,3.44,6.96,3.26,14.44,5.49,22.34,4.17l.66-.06Z"/>
          <g>
            <path class="cls-2" d="M74.15,61.47c4.95,3.08,9.03,7.05,12.87,11.62,1.48,1.75,2.49,3.64,3.16,5.6-.98,2.55-1.57,5.32-1.54,8.05.51,10.96.45,21.36-.51,32.27,5.85-1.78,11.75-3.73,17.62-5.73-.02-3.12-.02-6.24.02-9.36.19-2.91,1.07-5.7,1.29-8.53.26-3.28-.61-6.96-.9-10.24-.25-2.71-.49-5.46-.02-8.14.61-3.46.4-6.74.45-10.27.04-2.75-.26-5.38-1.03-8.1-.83-3.92-4.52-5.56-8.45-5.14-7.8.41-15.64.78-23.37,1.09-4.14.85-2.6,5.39.41,6.87Z"/>
            <path class="cls-2" d="M103.05,179.6c-5.61-12.75-1.84-26.66.01-39.8.09-.64.18-1.29.27-1.93-5.19-.57-10.63-2.29-16.59-5.21-1.18,16.84-.05,32.71-6.75,48.72-1.79,3.93-6.79,9.32-9.54,13.67-.83,1.3-1.53,2.45-.76,3.54,3.29,5.14,7.2-1.13,10.86-2.65,5.07-2.85,10.56-5.19,16.19-7.03,4.85-1.33,8.57-3.5,6.46-8.84l-.15-.47Z"/>
          </g>
        </g>
        <path class="cls-7" d="M414.86,156.15l-.32-.26c-3.79-3.38-7.67-7.52-9.92-12.19-4.6-9.41-4.66-20.2-9.84-29.39-.9-1.67-2.2-3.43-1.84-5.41,1.5-4.77,6.41-7.47,9.69-10.82,2.09-2.49,2.27-6.09,2.83-9.2,1.39-8.45-3.33-15.8-9.38-21.59-2.1-3.14-4.54-5.81-8.34-6.9-3.85-1.45-8.41-.93-12.28-1.68-2.05-.33-3.86.77-5.92.74-10.8-.41-22.08-.45-32.54-.74-2.82-.06-6.15.18-8.85.15-6.55,1.28-12.48,5.22-16.22,10.73-2.18,2.56-3.1,6.2-6.14,7.8-1.87,2.26-1.98,7.21.54,9.08,3.46,1.77,6.98-1.45,9.71-3.02,1.99-.87,5.59-1.23,7.92-.03,1.94,1.31,2.07,4.2,2.26,6.43,1.16,18.4,3.28,36.87,2.1,55.29-.48,6.82-2.12,13.63-7.46,18.43-2.73,1.97-2.26,5.32-1.59,8.32.65,1.96,1.36,6.9,4.1,6.12,5.42-2.62,12.18-2.28,18.01-1,14.9.32,27.04.3,38.27-10.85,4.39-4.04,5.89-.78,8.37,3.14,2.16,2.91,3.72,7.21,7.19,8.57,3.44.42,8.44.89,10.77-1.93,2.33-2.71,6.32-3.66,8.28-6.47,2.29-4.01,6.28-10.19.59-13.32Z"/>
        <path class="cls-7" d="M757.42,157.58l-.31-.27c-3.69-3.48-7.46-7.72-9.59-12.46-4.34-9.53-4.12-20.32-9.04-29.65-.86-1.7-2.11-3.48-1.69-5.46,1.62-4.72,6.61-7.3,9.98-10.56,2.15-2.44,2.43-6.02,3.07-9.12,1.62-8.41-2.9-15.88-8.8-21.84-2.01-3.19-4.39-5.93-8.15-7.12-3.81-1.56-8.38-1.16-12.23-2.01-2.05-.38-3.88.67-5.94.58-10.79-.7-22.06-1.04-32.51-1.61-2.82-.14-6.15.02-8.85-.09-6.58,1.1-12.62,4.88-16.5,10.29-2.25,2.5-3.26,6.11-6.35,7.64-1.93,2.21-2.18,7.16.3,9.09,3.41,1.86,7.01-1.26,9.79-2.76,2.01-.82,5.62-1.08,7.91.18,1.9,1.36,1.96,4.25,2.09,6.49.66,18.43,2.28,36.95.62,55.33-.66,6.81-2.48,13.57-7.95,18.22-2.78,1.89-2.4,5.26-1.82,8.27.59,1.98,1.18,6.94,3.94,6.23,5.49-2.47,12.24-1.95,18.03-.51,14.89.72,27.02,1.03,38.54-9.82,4.5-3.92,5.91-.62,8.29,3.37,2.08,2.97,3.52,7.31,6.96,8.76,3.43.51,8.41,1.12,10.82-1.64,2.41-2.65,6.42-3.49,8.45-6.25,2.4-3.95,6.55-10.02.95-13.3Z"/>
        <path class="cls-7" d="M610.8,62.47c-11.53-2.33-36.27.97-46.43,7.84-27.02,18.27-35.93,68.84-11.48,94.43,7.32,7.66,14.77,11.44,24.44,12.32,16.27,1.49,32.44,2.35,46.78-8.69,33.32-25.64,29.93-97.17-13.31-105.91Z"/>
        <path class="cls-7" d="M974.08,159.72l-.3-.28c-3.55-3.63-7.14-8.02-9.07-12.84-3.95-9.7-3.28-20.47-7.82-29.99-.79-1.73-1.96-3.57-1.46-5.52,1.82-4.65,6.9-7.02,10.4-10.14,2.25-2.35,2.68-5.92,3.44-8.98,1.96-8.34-2.25-15.98-7.89-22.18-1.88-3.27-4.14-6.1-7.85-7.45-3.74-1.71-8.32-1.5-12.13-2.51-2.03-.47-3.91.51-5.96.33-10.75-1.15-22-1.95-32.42-2.95-2.81-.25-6.15-.24-8.84-.45-6.62.83-12.81,4.36-16.91,9.6-2.35,2.41-3.51,5.97-6.66,7.37-2.02,2.13-2.47,7.06-.08,9.09,3.33,2,7.06-.97,9.89-2.35,2.05-.74,5.66-.85,7.9.51,1.84,1.44,1.78,4.33,1.82,6.57-.09,18.44.76,37.01-1.66,55.31-.94,6.77-3.04,13.46-8.69,17.88-2.86,1.78-2.61,5.15-2.15,8.19.51,2,.89,6.98,3.68,6.38,5.58-2.24,12.31-1.44,18.04.23,14.85,1.33,26.95,2.14,38.91-8.23,4.66-3.73,5.93-.38,8.14,3.7,1.96,3.05,3.22,7.45,6.59,9.04,3.41.65,8.36,1.46,10.88-1.19,2.51-2.55,6.56-3.22,8.71-5.89,2.56-3.85,6.96-9.74,1.49-13.25Z"/>
        <path class="cls-7" d="M855.97,137.24c-2.81-.13-9.38,4.36-12.66,5.57-5.81,2.13-23.83,5-28.3.28-2.01-2.12-.48-4.04-.5-6.07-.04-3.42-.58-5.87.23-9.64,1.72-7.98,10.21-6.18,16.34-7.17,6.71-1.08,10.07-3.82,14.56-9.02,2.08-2.4,8.09-9.84,5.06-12.93-3.54-3.62-13.85-.15-18.49.06-5.05.23-10.15-.98-15.23-.68-2.23-.68-1.85-5.79-.05-6.97,2.09-1.37,11.5-.35,14.75-.58,12.27-.89,20.61-7.15,28.22-16.79,2.37-3,8.05-11.36,3.43-14.02-2.78.9-5.68.26-8.39.62-1.96.26-4.14,1.38-6.39,1.59-10.94,1.05-22.26-4.55-33.1-3.67-19.38,1.57-45.33,27.73-51.9,45.98-12.34,34.3,19.98,77,54.85,72.43,14.6-1.91,36-16.02,41.11-30.85,1.14-3.31.34-7.96-3.54-8.14Z"/>
        <path class="cls-7" d="M299.41,152.73c-9.28-15.47-9.84-32.36-16.5-48.33-1.06-2.54-2.82-4.12-4.05-6.4-5.46-10.11-11.99-25.29-20.25-33.05-1.11-1.04-14.99-6.29-16.14-6.17-5.59,2.39-24.35,11.1-16.23,19.29,2.36,2.38,14.17,5.56,13.02,10.92-3.86,6.2-7.97,12.33-11.53,18.71-8.12,14.55-13.57,29.22-23.87,42.62-4.39,5.72-12.24,12.23-12.82,19.62-.72,9.21,11.08,1.4,15.66.79,3.07-.4,8.86-.27,12.07-.07,9.07.57,22.41,4.77,30.77,3.87,5.6-.6,15.33-7.86,18.62-7.53,4.04.4,8.83,9.93,12.58,11.51,4.51,1.9,13.22,1.15,17.18-1.78,1.63-1.21,7.98-7.83,8.65-9.48,1.76-4.3-4.89-10.72-7.17-14.52Z"/>
        <path class="cls-7" d="M180.96,175.92c-5.59-7.87-9.77-22.33-6.51-31.55,1.95-5.54.9-10.39,1.7-15.85,1.59-.26,3.79.39,5.25-.48.95-.57,1.41-1.73,1.41-2.84s-.4-2.17-.83-3.19c-2.01-4.76-6.61-9.04-7.56-13.82-1.15-5.76.42-13.09.74-18.93.55-10.27,2.01-21.87,10.79-28.07,3.83-2.7,9.12-4.53,10.37-8.85,1.1-3.8-1.82-7.82-5.6-9.56-3.78-1.74-8.18-1.73-12.39-1.59-5.27.18-10.52.52-15.77,1.02-5.56.53-11.48,1.4-15.58,4.95-5.58,4.85-5.87,12.87-5.77,19.99.1,7.01.2,14.02.3,21.03.07,4.76,1.71,10.36-2.98,13.72-1.56,1.12-3.52,1.44-5.39,1.88-2.33.54-10.06,1.76-11.28,4.05-.24.44-.37.99-.8,1.25-.33.2-.73.17-1.11.14-1.39-.12-2.83-.25-4.06-.91-4.13-2.18-.34-8.24.1-11.62.59-4.46.29-8.99.14-13.46-.17-5.15-.41-10.32-.95-15.45,0,0,.43-5.43.08-7.95-.48-3.46-1-7.06-3.06-9.98-1.38-1.02-3-1.62-4.72-1.94-5.17-2.11-12.78-.68-18.56-.35-4.88.28-9.77.55-14.65.83-3.26.18-6.79.47-9.21,2.52-4.73,4.01-1.8,11.67,3.11,15.48,4.9,3.82,11.35,5.84,15.54,10.34.44.47-.9,5.37-1.02,6.19-.34,2.45-.61,4.9-.82,7.36-.39,4.73-.52,9.48-.4,14.23.07,2.68,1.21,5.81.69,8.46-.58,2.97-3.03,4.63-5.15,6.82-.79.82-1.6,1.66-1.99,2.73-.92,2.5.7,5.15,2.12,7.41,2.7,4.31,4.17,8.57,4.29,13.66.1,4.21-2.57,7.66-2.51,11.76.05,3.74-.1,7.48-.28,11.26,0,.03,0,.07,0,.1,0,.17-.01.34-.02.5-.13,2.58-1.27,4.47-2.92,5.71-.16,1.07-.37,2.13-.69,3.16-1.67,5.43-5.44,8.99-10.33,11.43-.37.8-.74,1.6-1.1,2.41-.75,1.63-1.67,3.35-2.74,4.95.07,2.46.3,4.9.75,7.32.34,1.81.96,4.18,1.92,6.51,15.69.32,29.21-7.26,44.53-10.64.07-.01.14-.02.21-.04l5.58-2.55c1.48-.67,3.06-1.45,3.75-2.84.7-1.43.27-3.09-.16-4.61-2.28-8.21-3.84-16.6-4.64-25.05-.34-3.55-.06-6.96-.12-10.46-.04-2.88-2.9-8.28-1.61-10.89.66-1.34,2.56-1.26,4.06-1.18,4.36.21,8.56-1.42,12.62-3.02,4.42-1.75,8.85-3.49,13.27-5.24,5.11-2.02,2.56,13.75,2.37,16.12-.64,7.82-1.62,15.64-3.98,23.14-1.53,4.85.43,12.59,4.95,15.71,2.11,1.45,4.61,2.31,6.89,3.52,7.44,3.98,12.49,11.81,20.79,13.83,4.63,1.13,9.85.09,13.47-2.84,3.62-2.93,5.47-7.71,4.51-12.09-1.16-5.28-5.81-9.15-9-13.64Z"/>
        <path class="cls-7" d="M510.53,113.11c-.06-.01-.11-.03-.17-.04-.52-.13-1.07-.35-1.25-.84-.16-.42.02-.88.19-1.29.81-1.93,1.65-3.9,3.27-5.31.44-.38.94-.67,1.46-.92,1.96-.97,3.63-2.43,4.6-4.39,2.06-4.13,3.41-8.59,2.74-13.09-.26-1.78-.84-3.49-1.49-5.17-5.04-12.96-14.18-25.41-29.39-24.65-7.01.35-13.19,4.6-20.02,6.31-6.25,1.56-12.8,1.9-19.18,1-3.24-.46-6.62-1.23-9.71-.16-3.9,1.34-6.31,5.2-9.45,7.86-1.71,1.44-3.08,3.29-3.61,5.46-.21.83-.51,1.64-.91,2.4-.7,2.54,1.27,5.07,3.49,6.47,2.22,1.41,4.84,2.22,6.76,4.02,1.18,1.1,2.03,2.52,2.75,3.97,4.36,8.76,2.24,21.87,1.77,31.46-.32,6.51-1.54,12.93-3.5,19.15-1.65,5.22-3,10.89-6.8,15.05-.69.76-1.45,1.47-1.97,2.36-1.98,3.34.24,7.88,3.61,9.8,3.37,1.92,7.45,1.95,11.33,1.99,3.54.03,7.1.12,10.57.79,3.71.72,7.28,2.12,11.03,2.57,2.35.29,4.73.2,7.1.11,6.78-.25,16.05,1.14,22.24-1.88,4.25-2.08,8.04-5.33,11.59-8.4,6.99-6.05,16.47-13.97,19.84-22.9,5.08-13.44-3-28.52-16.9-31.73Z"/>
      </g>
      <g>
        <g>
          <path class="cls-2" d="M1006.29,113.24c-7.12-6.49-8.6-12.22-2.85-20.49,1.37-1.97,7.87-9.25,10.16-8.8,1.96,1.23,1.15,4.25,1.65,6.39,3.37,14.24,36.19,24.62,48.6,31.25,9.85,5.26,24.82,13.09,19.7,26.82-.44,1.17-7.22,10.73-7.99,11.28-1.42,1-2.82,1.13-4.38.31-1.76-.93-.41-2.61-.81-4.5-4.13-19.54-49.7-29.12-64.08-42.24Z"/>
          <path class="cls-2" d="M1011.1,157.51c14.72-2.38,33.25,10.26,51.75,8.37,1.33-.14,7.52-2.1,7.28,1.39-.21,3.19-12.02,12.07-15.24,13.37-14.77,5.96-30.77-4.03-45.48-4.16-5.62-.05-11.16,1.28-16.69,1.98-5.04-1.23,1.35-10.77,3.15-12.8,3.5-3.96,10.02-7.32,15.23-8.16Z"/>
          <path class="cls-2" d="M1082.9,71.3c2.18,2.16-6.8,11.3-8.72,12.65-4.03,2.84-7.82,3.21-12.43,4.41,2.37,2.67,4.36,4.23,5.16,8.04.44,2.09.82,14.43.11,15.7-.34.61-.61,1.14-1.41,1.17-6.89-2.17-8.49-12.87-7.62-19.08.39-2.75,4.61-4.41,2.46-6.71-.8-.86-11.02-5.49-12.81-6.15-8.2-3.05-14.33-3.95-23.1-2.82-1.35.17-5.21,2.32-5.44-.45-.24-2.89,14.12-12.9,17.06-14.16,17.24-7.4,30.13,7.08,46.73,7.41Z"/>
          <path class="cls-2" d="M1015.21,128.69c1.23-.22,3.09,2.21,3.49,3.32,1.32,3.65,1.25,18.32-4.01,18.67-7.12.47-.53-15.94-1.16-19.47.16-.67,1.09-2.42,1.68-2.52Z"/>
        </g>
        <path class="cls-8" d="M1075.97,118.15c-1.65-3.96-2.86-18.58-2.08-22.88.71-3.91,8.03-8.16,10.84-11.22,1.32-1.44,7.7-9.87,8.1-11.18.81-2.65-.45-5.15-2.2-7.03-3.31-3.55-6.65-1.83-10.97-2.8-6.73-1.52-14.02-6.26-21.24-7.84-21.05-4.63-30.59,3.28-44.61,16.7-12.59,12.05-34.08,28.09-16.35,45.34,4.64,4.52,9.48,4.32,9.21,11.75-.11,3.06-1.36,14.85-2.26,17.19-2.42,6.28-6.97,8.15-11.4,12.49-3.17,3.11-7.89,8.41-9.98,12.22-3.96,7.23-1.6,11.68,5.27,15.66,3.7,2.14,8.32-1.61,12.5-2.32,11.95-2.03,33.33,5.59,47.18,5.7,7.3.06,10.03-1.31,15.54-5.57,8.26-6.37,22.77-23.9,27.61-33.11,7.39-14.05-4.85-25.62-15.16-33.1Z"/>
      </g>
    </g>
    <path class="cls-2" d="M591.47,171.65c-.02-.51,4.9-1.88,5.76-2.3,17.47-8.53,28.26-31.96,24.29-53.98-2.52-13.98-7.48-27.19-18.39-34.92-2.04-1.45-10.15-4.48-10.76-5.8-.18-.4-.2-1.33.27-1.55,24.39-6.85,46.52,13.92,47.18,43.93.51,23.14-13.41,48.29-32.46,54.66-1.97.66-15.78,3.22-15.88-.05Z"/>
    <path class="cls-2" d="M587.24,74.42c-6.48,4.55-11.68,8.48-16.15,15.99-3.6,6.04-8.71,21.72-7.77,29.08s.16,7.44.11,14.13c-.08,9.83,6.59,25.31,12.86,31.57,1.3,1.29,6.07,4.05,6.3,5.42.1,1.37-.25,1.09-1.06,1.26-1.4.29-5.12-.19-6.63-.51-43.07-9.06-35.49-87.73,5.2-97.42,1.24-.29,7.13-1.65,7.15.48Z"/>
    <g>
      <path class="cls-2" d="M171.91,176.19c-6.03-16.7-3.85-32.9-4.32-50.27-5.82-.53-11.46.36-17.13,1.89.15,1.95.32,3.89.51,5.83,1.18,13.21,4.25,27.27-2,39.75l-.18.46c-2.38,5.23,1.23,7.57,6.01,9.11,5.53,2.08,10.89,4.66,15.81,7.73,3.58,1.67,7.17,8.11,10.71,3.12.83-1.05.18-2.23-.58-3.57-2.53-4.46-7.25-10.07-8.84-14.07Z"/>
      <path class="cls-2" d="M184.56,49.83c-7.7-.65-15.52-1.36-23.29-2.12-3.91-.6-7.68.88-8.7,4.76-.9,2.68-1.34,5.29-1.43,8.04-.06,1.77-.11,3.54-.16,5.32-1.06,1.4-2.05,3.29-2.93,5.73.73,8.65,1.9,17.38,2.04,26.12-.04,1.06-.09,2.11-.14,3.17,6.16.07,11.7,1.66,16.85,4.84,0-8.15.45-16.13,1.26-24.41.16-2.72-.28-5.52-1.13-8.11.77-1.93,1.87-3.77,3.44-5.46,4.07-4.4,8.34-8.18,13.44-11.04,3.09-1.35,4.85-5.82.76-6.85Z"/>
    </g>
  </g>
</svg>