<?xml version="1.0" encoding="UTF-8"?>
<svg id="b" data-name="Layer 1" xmlns="http://www.w3.org/2000/svg" viewBox="0 0 1150.89 329.14">
  <path d="M326.9,236.06c1.06-4.22,1.76-5.91,3.52-6.12l.56-.07v-1.55h-10.77v1.55l.56.07c1.48.21,1.9,1.27,1.9,2.32,0,.99-.42,2.82-.63,3.8l-6.83,30.47-6.9-32.16c-.07-.42-.35-1.62-.35-2.46,0-1.06.77-1.76,2.18-1.97l.49-.07v-1.55h-14.08v1.55l.56.07c1.9.21,2.46,1.62,3.8,7.04l8.02,31.74c.28,1.2.35,2.04.35,2.6,0,.84-.63,1.41-1.2,1.55l-.7.14v1.55h12.25v-1.55l-.56-.21c-.63-.21-1.05-.77-1.05-1.27,0-.84.21-2.04.42-2.81l8.44-32.65Z" fill="currentColor"/>
  <path d="M338.72,267.31v-28.15l-10.84,1.06v1.48h.84c1.97,0,2.89,1.2,2.89,3.31v22.31c0,3.03-.84,5.35-3.17,5.63l-.56.07v1.55h14.43v-1.55l-.49-.07c-2.32-.35-3.1-2.67-3.1-5.63Z" fill="currentColor"/>
  <path d="M335.2,235.92c2.32,0,3.94-2.39,3.94-5.21,0-3.59-1.9-5.84-4.08-5.84s-4.08,2.6-4.08,5.35c0,3.24,1.9,5.7,4.22,5.7Z" fill="currentColor"/>
  <path d="M349.98,247.04c0-2.6,2.04-4.57,5.49-4.57s7.39,2.75,8.16,8.02h.7l-.63-11.12c-.28.21-.92.84-1.69.84-1.41,0-3.87-1.06-6.9-1.06-6.26,0-11.96,4.01-11.96,10.06,0,11.82,17.38,7.39,17.38,16.4,0,2.74-2.53,6.12-7.04,6.12-4.79,0-8.87-3.45-10.35-10.13l-.63.14,1.06,13.3c.42-.56.99-1.27,1.97-1.27,1.34,0,3.73,1.48,7.88,1.48,8.94,0,13.93-6.12,13.93-12.03,0-13.37-17.38-9.64-17.38-16.19Z" fill="currentColor"/>
  <path d="M396.07,267.17v-28.08l-10.56,1.41v1.48l.56.07c1.9.21,2.82.92,2.82,3.24v9.99c0,12.17-5.28,14.64-7.18,14.64-3.45,0-3.66-2.46-3.66-7.25v-23.58l-10.56,1.41v1.48l.63.07c1.97.21,2.82,1.06,2.82,3.24v20.48c0,1.2.07,2.67.21,3.87.42,3.31,3.24,5.63,6.62,5.63s7.25-2.32,11.12-6.97c.14,2.04.35,3.94,1.27,6.26h8.94v-1.62l-.63-.14c-1.76-.42-2.39-2.18-2.39-5.63Z" fill="currentColor"/>
  <path d="M439.62,267.31v-40.82l-10.91,1.9v1.62l.63.07c2.74.28,3.17,1.62,3.17,4.15v33.08c0,3.03-.77,5.35-3.17,5.63l-.29.03-.2-.1c-2.88-1.41-3.8-2.11-3.8-10.77v-11.33c0-6.83-1.41-11.61-10.27-11.61-5.42,0-8.59,2.18-10.13,2.18-.77,0-1.27-.56-1.55-.98l-.99,11.75.63.14c1.9-6.69,6.19-9.15,10.13-9.15s5,2.25,5,6.4v2.11c-12.1,3.17-18.23,8.09-18.23,15.2,0,4.86,3.1,8.44,8.16,8.44,4.36,0,7.88-1.97,10.06-5.63.35,2.11.99,3.38,2.25,4.93h23.15v-1.55l-.56-.07c-2.32-.28-3.1-2.67-3.1-5.63ZM417.88,258.72c0,8.87-3.73,12.31-6.54,12.31s-4.01-2.25-4.01-5.28c0-5.28,4.29-8.94,10.56-10.56v3.52Z" fill="currentColor"/>
  <path d="M468.76,237.05c0-2.67,2.04-5.84,7.04-5.84s9.08,3.73,11.12,11.33l.92-.14-1.13-14.78c-.56.56-1.34,1.13-2.18,1.13-2.53,0-4.15-1.13-9.01-1.13-8.66,0-14.43,5.35-14.43,12.17,0,15.06,23.36,9.99,23.36,22.66,0,4.71-3.73,8.87-9.22,8.87-6.83,0-11.54-4.86-14.43-14.5l-.99.21,2.18,18.16c.77-1.27,1.83-1.9,2.67-1.9,2.11,0,5.56,1.97,10.63,1.97,9.85,0,16.89-7.53,16.89-15.62,0-16.89-23.43-13.51-23.43-22.59Z" fill="currentColor"/>
  <path d="M507.25,239.16c-7.74,0-14.57,7.39-14.57,18.16s6.12,17.95,15.97,17.95c2.75,0,5.56-.77,7.67-.77.28,0,.92.21,1.06.28l2.53-11.47-.49-.14c-2.18,5.7-6.33,8.16-9.85,8.16-4.5,0-9.08-4.93-9.5-13.09l20.06-7.25c-1.9-7.74-6.26-11.82-12.88-11.82ZM499.86,254.43c.14-8.09,3.24-11.75,6.69-11.75,3.17,0,5.07,2.46,5.77,7.46l-12.46,4.29Z" fill="currentColor"/>
  <path d="M581.48,267.31v-28.15l-9.85.96v-.26h-10.06v1.69h.63c.49,0,1.48.7,1.48,1.69,0,.49-.07,1.34-.21,1.9l-6.33,22.73-4.64-22.24c-.14-.7-.21-1.27-.21-1.76,0-1.76.92-2.11,2.18-2.25l.7-.07v-1.69h-12.81l.14-.7c-.49,0-.99-.07-1.41-.07-5,0-7.25,2.04-9.92,6.9-.07-2.46-.35-4.5-1.69-6.83l-9.71,1.27v1.55c3.87.21,4.72,2.6,4.72,9.64v15.69c0,2.96-.7,5.28-3.17,5.63l-.49.07v1.55h14.43v-1.55l-.56-.07c-2.32-.28-3.1-2.6-3.1-5.63v-9.71c0-8.02,1.9-12.32,5.7-12.32,1.55,0,2.67.84,3.59,1.83l1.11-5.44c1.62.4,2.37,1.6,3.04,4.31l5.84,22.73c.21.84.42,2.32.42,2.39,0,1.34-.21,1.76-1.97,1.83v1.62h12.24v-1.62l-.77-.14c-.77-.14-1.13-.49-1.13-1.34,0-.92.35-2.25.99-4.22l6.4-20.13c1.06-3.25,1.7-5.05,3.6-5.42h.83c1.97,0,2.89,1.2,2.89,3.31v22.31c0,3.03-.84,5.35-3.17,5.63l-.56.07v1.55h14.43v-1.55l-.49-.07c-2.32-.35-3.1-2.67-3.1-5.63Z" fill="currentColor"/>
  <path d="M581.9,230.72c0-3.59-1.9-5.84-4.08-5.84s-4.08,2.6-4.08,5.35c0,3.24,1.9,5.7,4.22,5.7s3.94-2.39,3.94-5.21Z" fill="currentColor"/>
  <path d="M627.01,239.16c-7.74,0-14.57,7.39-14.57,18.16,0,2.26.28,4.35.8,6.26l-.59-.07c-2.11,5.28-5.7,7.53-9.01,7.53-6.54,0-10.27-6.69-10.27-14.29,0-9.01,3.66-14.07,8.59-14.07,3.24,0,7.18,3.1,8.37,9.5l.56-.14-1.55-13.72c-.77.77-1.27,1.27-2.88,1.27-1.41,0-3.03-.42-5.49-.42-9.36,0-15.34,7.81-15.34,17.1,0,5.35,1.41,9.78,4.22,13.3,3.38,4.22,7.32,5.7,13.16,5.7,2.04,0,4.93-.77,5.49-.77.7,0,1.13.07,1.69.56l3.07-11.39c1.97,7.14,7.4,11.6,15.15,11.6,2.75,0,5.56-.77,7.67-.77.28,0,.92.21,1.06.28l2.53-11.47-.49-.14c-2.18,5.7-6.33,8.16-9.85,8.16-4.5,0-9.08-4.93-9.5-13.09l20.06-7.25c-1.9-7.74-6.26-11.82-12.88-11.82ZM619.62,254.43c.14-8.09,3.24-11.75,6.69-11.75,3.17,0,5.07,2.46,5.77,7.46l-12.46,4.29Z" fill="currentColor"/>
  <path d="M678.52,270.69c-6.62,0-13.65-8.73-13.65-22.59,0-10.34,4.65-16.54,10.49-16.54,4.5,0,9.22,4.43,11.47,13.51l.63-.07-2.11-17.66c-.56,1.06-1.2,1.41-2.11,1.41-1.69,0-4.15-1.13-8.23-1.13-11.33,0-18.58,8.16-18.58,22.31,0,11.05,4.71,20.13,12.32,23.5,3.66,1.62,6.54,1.83,10.2,1.83,2.32,0,4.36-.63,5.7-.63.7,0,1.2.14,1.55.63l3.03-14.07-.63-.14c-2.04,6.12-5.07,9.64-10.06,9.64Z" fill="currentColor"/>
  <path d="M703.71,239.16c-7.74,0-14.57,7.39-14.57,18.16s6.12,17.95,15.97,17.95c2.75,0,5.56-.77,7.67-.77.28,0,.92.21,1.06.28l2.53-11.47-.49-.14c-2.18,5.7-6.33,8.16-9.85,8.16-4.5,0-9.08-4.93-9.5-13.09l20.06-7.25c-1.9-7.74-6.26-11.82-12.88-11.82ZM696.32,254.43c.14-8.09,3.24-11.75,6.69-11.75,3.17,0,5.07,2.46,5.77,7.46l-12.46,4.29Z" fill="currentColor"/>
  <path d="M746,267.31v-16.68c0-5.28-.7-8.66-3.59-10.49-1.13-.7-2.18-.99-3.52-.99-4.36,0-8.45,3.94-11.26,7.32-.14-2.46-.49-5-1.41-7.18l-9.43,1.2v1.27l.42.07c2.67.42,3.73,1.69,3.73,7.25v18.23c0,3.03-.7,5.35-3.03,5.63l-.56.07v1.55h14.43v-1.55l-.63-.07c-2.32-.28-3.03-2.67-3.03-5.63v-10.34c0-9.36,4.64-12.6,7.25-12.6,2.96,0,3.45,3.1,3.45,7.18v15.76c0,2.89-.56,5.35-3.03,5.63l-.56.07v1.55h14.43v-1.55l-.63-.07c-2.46-.28-3.03-2.67-3.03-5.63Z" fill="currentColor"/>
  <path d="M784.91,245.28c1.55,0,2.67.84,3.59,1.83l1.62-7.95c-.49,0-.99-.07-1.41-.07-5,0-7.25,2.04-9.92,6.9-.07-2.46-.35-4.5-1.69-6.83l-9.23,1.2.44-1.49c-.99.77-2.46.99-3.73.99h-5.35v-13.37c-1.9,1.48-3.73,2.89-6.4,3.52.28.92.49,2.18.49,3.31,0,5.35-2.32,8.3-5.21,8.66l-.63.07v1.62h4.64v21.6c0,6.33,1.34,9.99,8.3,9.99,1.76,0,4.36-.42,6.83-1.34l2.81-8.59-.63-.21c-1.76,4.08-4.5,5.56-6.12,5.56-3.59,0-4.08-3.1-4.08-6.76v-20.27h5.98c.7,0,1.06.42,1.48.7l.71-2.39c3.87.21,4.71,2.61,4.71,9.64v15.69c0,2.96-.7,5.28-3.17,5.63l-.49.07v1.55h14.43v-1.55l-.56-.07c-2.32-.28-3.1-2.6-3.1-5.63v-9.71c0-8.02,1.9-12.32,5.7-12.32Z" fill="currentColor"/>
  <path d="M802.15,239.16c-7.74,0-14.57,7.39-14.57,18.16s6.12,17.95,15.97,17.95c2.75,0,5.56-.77,7.67-.77.28,0,.92.21,1.06.28l2.53-11.47-.49-.14c-2.18,5.7-6.33,8.16-9.85,8.16-4.5,0-9.08-4.93-9.5-13.09l20.06-7.25c-1.9-7.74-6.26-11.82-12.88-11.82ZM794.76,254.43c.14-8.09,3.24-11.75,6.69-11.75,3.17,0,5.07,2.46,5.77,7.46l-12.46,4.29Z" fill="currentColor"/>
  <path d="M840.91,258.07c-5.43,0-9.15,4.48-9.15,9.15s3.77,9.12,9.15,9.12,9.12-4.19,9.12-9.12-4.01-9.15-9.12-9.15ZM840.91,275.16c-4.69,0-7.96-3.85-7.96-7.94s3.27-7.96,7.96-7.96,7.94,3.64,7.94,7.96-3.45,7.94-7.94,7.94Z" fill="currentColor"/>
  <path d="M842.07,271.15c-1.98,0-3.74-1.66-3.74-4.35,0-2,1.13-3.4,2.72-3.4,1.87,0,2.69,1.71,3.08,2.58l.29-.11-.71-3.98c-.16.34-.29.5-.66.5-.05,0-.82-.11-.92-.13-.4-.05-.84-.11-1.27-.11-3.51,0-4.85,2.45-4.85,4.88,0,2.93,1.98,5.38,5.77,5.38.26,0,1.58-.11,1.87-.11s.34.03.47.21l1.13-3.32-.32-.16c-.21.5-.9,2.11-2.87,2.11Z" fill="currentColor"/>
  <path d="M411.31,163.74c.18-2.26-3.03-4.09-4.41-5.4-6.58-5.63-11.19-12.82-13.66-21.35-1.79-5.89-3.73-11.78-5.98-17.5-.95-2.26-2.88-3.63-5.48-3.34l-.51.04c-11.37,1.08-11.52,9.51-6.81,17.58,2.74,5.79,5.24,11.69,8.34,17.35,3.35,5.81,11.74,20.79,19,20.25,1.69-.63,3.13-1.75,4.63-2.66,1.75-1.27,4.42-2.66,4.87-4.99Z" fill="currentColor"/>
  <path d="M374.01,82.46c2.65,4.93,4.54,10.15,3.34,15.09-.78,3.67-3.91,6.71-5.83,9.59-1.28,1.99-3.2,3.46-5.01,4.85-1.49,1.12-.73,4.28,1.3,3.77.53-.13,1.1-.4,1.71-.63,13.56-4.91,30.81-13.41,31.44-29.73l-.07-.42c-2.67-6.06-7.55-13.04-12.59-17.48-1.66-1.31-4.45-.4-6.72.56-4.32,1.48-8.37,4.65-10.47,8.68-.72,2.26,2,3.87,2.91,5.74Z" fill="currentColor"/>
  <path d="M333.01,147.37c.15,2.33.02,5,2.84,5.48,8.28,1.17,9.94-8.01,11.48-14.12,3.48-10.27,2.87-21.05,1.79-31.64l-.03-.44c-.99-7.39.37-15.79-3.19-22.56-1.8-2.6-8.92-4.57-12.26-3.31-3.48,1.67-.88,6.11-1.28,9.12-.84,19.06-.72,38.42.64,57.47Z" fill="currentColor"/>
  <path d="M372.35,160.42c-3.94-1.11-7.99-1.84-12.01-2.59-8.33-1.25-17.09-3.21-24.47,2.09-1.59,1.15-2.99,2.49-4.76,3.32-1.66.86-4.14.71-5.12,2.55-.47.86-.31,2.08.41,2.73.57.58,1.46.69,2.23.78,11.27-.69,22.51,1.5,33.88,1.01h.43c3.69.54,6.27-2.35,8.62-4.78.9-1.03,2.88-2.55,2.38-4.02-.23-.5-.83-.83-1.6-1.09Z" fill="currentColor"/>
  <path d="M332.01,75.93c10.49-1.07,21.38,4.57,31.09-1.52,1.15-.7,2.22-1.71,3.33-2.35,1.29-.7,3.94-.76,4.54-1.91.77-.99.37-3.45-1.06-4.32-7.18-1.43-14.86-1.48-22.1-1.04l-.33-.06c-.6-.27-1.48-.6-2.26-.59-6.07.33-12.21.75-18.3,1.11-.97.11-2.15.01-2.9.33-.93.47-1.24,1.94-2.16,2.66-1.81,1.81-2.23,4.88-.99,6.76,2.71,2.04,7.79.65,11.14.94Z" fill="currentColor"/>
  <path d="M725.44,116.72l-.51.03c-11.4.77-11.77,9.19-7.28,17.39,2.59,5.86,4.92,11.83,7.87,17.57,3.19,5.89,11.18,21.1,18.45,20.75,1.7-.59,3.18-1.67,4.7-2.54,1.79-1.23,4.49-2.54,5-4.86.25-2.25-2.92-4.17-4.26-5.51-6.43-5.8-10.84-13.11-13.08-21.71-1.63-5.94-3.41-11.88-5.5-17.65-.89-2.28-2.78-3.71-5.38-3.48Z" fill="currentColor"/>
  <path d="M718.56,82.82c2.52,5,4.27,10.26,2.93,15.17-.88,3.65-4.09,6.6-6.09,9.43-1.33,1.95-3.29,3.37-5.14,4.71-1.52,1.08-.85,4.26,1.2,3.8.53-.11,1.11-.37,1.72-.59,13.69-4.54,31.16-12.58,32.22-28.87l-.06-.43c-2.51-6.12-7.2-13.23-12.12-17.82-1.62-1.35-4.44-.52-6.73.37-4.36,1.36-8.49,4.42-10.7,8.4-.78,2.24,1.89,3.92,2.75,5.81Z" fill="currentColor"/>
  <path d="M675.84,146.61c.09,2.33-.11,4.99,2.7,5.56,8.25,1.39,10.15-7.74,11.86-13.81,3.76-10.17,3.44-20.97,2.64-31.58l-.02-.44c-.8-7.42.8-15.78-2.58-22.64-1.73-2.65-8.79-4.81-12.17-3.63-3.52,1.57-1.04,6.08-1.52,9.08-1.35,19.04-1.75,38.39-.91,57.47Z" fill="currentColor"/>
  <path d="M714.81,160.7c-3.91-1.21-7.94-2.05-11.93-2.91-8.3-1.47-17-3.66-24.52,1.44-1.62,1.1-3.06,2.4-4.84,3.2-1.69.81-4.16.6-5.18,2.41-.49.84-.36,2.07.34,2.74.55.6,1.44.73,2.2.83,11.29-.39,22.46,2.11,33.84,1.92l.43.02c3.67.62,6.33-2.19,8.74-4.55.93-1.01,2.95-2.47,2.49-3.96-.21-.5-.81-.85-1.57-1.13Z" fill="currentColor"/>
  <path d="M676.75,75.16c10.52-.79,21.25,5.14,31.12-.69,1.17-.66,2.27-1.65,3.39-2.26,1.31-.66,3.96-.66,4.59-1.79.79-.97.46-3.44-.94-4.34-7.14-1.62-14.81-1.88-22.06-1.64l-.33-.07c-.59-.28-1.47-.64-2.24-.65-6.08.16-12.23.42-18.32.61-.97.08-2.15-.04-2.91.25-.95.45-1.29,1.91-2.23,2.6-1.86,1.77-2.36,4.82-1.17,6.73,2.65,2.11,7.77.86,11.12,1.24Z" fill="currentColor"/>
  <path d="M966,161.36c-6.18-6.06-10.29-13.55-12.18-22.23-1.38-6-2.92-12.01-4.77-17.86-.79-2.32-2.63-3.82-5.24-3.7h-.51c-11.42.32-12.14,8.71-7.99,17.09,2.34,5.97,4.43,12.02,7.14,17.88,2.94,6.02,10.3,21.54,17.58,21.5,1.73-.52,3.24-1.54,4.8-2.34,1.84-1.15,4.59-2.35,5.19-4.65.34-2.24-2.74-4.28-4.03-5.68Z" fill="currentColor"/>
  <path d="M938.33,83.42c2.31,5.1,3.84,10.43,2.31,15.28-1.03,3.61-4.35,6.42-6.47,9.18-1.41,1.9-3.42,3.23-5.33,4.49-1.56,1.02-1.02,4.22,1.05,3.85.54-.09,1.13-.32,1.75-.52,13.87-3.97,31.65-11.29,33.38-27.52l-.04-.43c-2.26-6.22-6.65-13.52-11.38-18.3-1.56-1.42-4.42-.7-6.74.1-4.41,1.18-8.67,4.07-11.04,7.95-.87,2.21,1.73,4,2.51,5.92Z" fill="currentColor"/>
  <path d="M910.19,83.14c-1.62-2.72-8.59-5.16-12.01-4.13-3.58,1.43-1.29,6.04-1.89,9.01-2.13,18.96-3.33,38.28-3.27,57.38,0,2.33-.32,4.99,2.47,5.67,8.18,1.73,10.46-7.32,12.41-13.31,4.17-10.01,4.3-20.81,3.94-31.44v-.44c-.49-7.44,1.45-15.73-1.65-22.73Z" fill="currentColor"/>
  <path d="M931.38,161.08c-3.85-1.37-7.85-2.38-11.8-3.4-8.23-1.81-16.83-4.36-24.55.43-1.67,1.03-3.15,2.28-4.97,2.99-1.72.74-4.18.43-5.28,2.19-.53.82-.45,2.06.22,2.76.53.62,1.41.78,2.17.92,11.29.07,22.36,3.03,33.73,3.3l.43.04c3.64.78,6.42-1.93,8.92-4.19.97-.97,3.05-2.35,2.65-3.85-.19-.51-.77-.88-1.52-1.2Z" fill="currentColor"/>
  <path d="M927.99,74.64c1.2-.62,2.34-1.56,3.48-2.12,1.33-.61,3.99-.49,4.66-1.6.83-.94.6-3.42-.76-4.38-7.06-1.92-14.72-2.48-21.98-2.54l-.33-.09c-.58-.31-1.44-.7-2.21-.74-6.08-.09-12.24-.08-18.33-.14-.98.04-2.15-.13-2.92.13-.96.41-1.37,1.85-2.33,2.51-1.93,1.69-2.56,4.72-1.45,6.68,2.56,2.22,7.73,1.18,11.06,1.69,10.54-.36,21.02,6.01,31.12.59Z" fill="currentColor"/>
  <path d="M802.89,143.35c7.48-2.09,4.96-4.42,5.26-10.19.21-3.93,3.43-10.58-2.09-12.1-4.72-1.3-6.67,4.41-6.88,8.25-.14,2.51.56,4.64.56,6.64,0,2.11-1.02,4.52-.55,6.84-7.1-3.16-13.25-12.85-15.58-20.32-2.47-7.92-4.5-17.75-2.77-25.96.65-3.07,2.71-5.54,2.5-8.65-2.09-.42-3.2,1.33-4.49,2.74-20.54,22.36-8.21,59.46,15.76,73.16,14.2,8.12,28.17,6.38,42.08-1.46,2.9-1.63,12.93-9.21,12.7-12.63-.21-3.13-6.94.29-8.79.77-9.98,2.58-16.44,3.12-26.51.2-3.64-1.06-10.35-3.01-11.2-7.29Z" fill="currentColor"/>
  <path d="M831.69,83.49c6.43-.53,19.43-6.17,22.02-12.82,2.06-5.29-6.62-2.18-8.84-2.04-17.7,1.14-26.25-9.55-43.72,1.21-3,1.85-11.43,8.79-13.07,11.67-.65,1.14-.98,2.3.37,2.99,6.16-1.28,12.28-2.02,18.66-1.58.45,4.43-3.92,10.83-2.26,14.71.28.65.05.73.94.72,7.37-1.75,1.63-10.24,4.04-15.35,7.25-.25,14.59,1.09,21.86.49Z" fill="currentColor"/>
  <path d="M797.74,105.29c-1.88.52-8.82,3.03-10,4.16-1.84,1.75-3,7.52.34,8.37,4.86.21,9.69-.32,14.57-.32,6.66-.01,9.42-.62,15.89-1.55,6.66-.96,14.34-.29,19.73-5.29,1.6-1.49,3.8-3.71,1.89-5.82l-1.61-.52c-13.45,1.06-27.66-2.62-40.82.98Z" fill="currentColor"/>
  <path d="M254.51,72.9c-5.04-4.82-8.72-7.9-15.71-4.13-1.66.89-5.55,4.34-3.67,6.2.58.57,2.38.94,3.42,1.79,9.93,8.15,13.67,17.08,17.88,28.82,6.65,18.57,11.63,38.79,19.52,56.85,3.28,7.52,7.98,12.26,16.6,7.81,7.26-3.74,4.05-5.7,1.52-10.54-14.21-27.22-15.75-64.06-39.56-86.81Z" fill="currentColor"/>
  <path d="M252.56,156.14c-9.62-2.56-25.16-8.24-34.77-6.74-5.09.79-14.28,7.05-15.16,12.37-.81,4.9,4.76,2.01,6.77,1.77,9.15-1.12,11.79,1.39,19.41,3.71,5.95,1.81,19.21,2.06,25.02.02,2.42-.85,11.75-4.83,10.04-8.12-3.09-1.9-7.64-2.03-11.3-3.01Z" fill="currentColor"/>
  <path d="M225,140.67c4.06-7.82,7.3-16.11,11.15-24.01,1.73-3.54,8.78-14.56,8.43-17.46-.07-.61-.51-1.93-1.1-2.11-1.98-.33-2.02,1.86-3,3.01-6.41,7.5-6.5,9.5-10.9,17.67-4.6,8.56-10.38,16.62-13.29,25.99.62.56,8.19-1.47,8.71-3.1Z" fill="currentColor"/>
  <path d="M444.41,155.47c.25.16.56.13.85.1,1.5-.16,3-.32,4.5-.47,2.38-.25,2.86-1.93,4.52-3.29,1.64-1.35,3.84-1.84,5.26-3.53,4.22-5.04,4.74-31.8,4.41-39.04-.46-10.33-3.66-20.98-1.21-31.17-6.17-6.1-10.13-10.75-19.18-6.17-2.43,1.23-7.75,5.29-5.52,8.31,1.11,1.5,3.97,1.72,5.99,5,5.67,9.23,5.68,22.08,5.45,32.52-.14,6.24-.65,12.49-1.57,18.67-.86,5.78-4.1,12.33-3.91,18.04.01.39.08.83.41,1.04Z" fill="currentColor"/>
  <path d="M482.84,75.88c12.4,2.86,17.93,15.5,13.28,27.04-.71,1.75-3.37,4.7-2.6,6.2.81,1.59,6.79.66,8.2-.06,16.94-8.63,16.67-30.18,2.8-41.66-7.14-5.91-12.96-4.91-21.3-2.09-5.02,1.7-14.04,5.66-15.79,10.86,5.55-.72,9.81-1.59,15.41-.29Z" fill="currentColor"/>
  <path d="M494.08,116.69c-4.8.16-16.73,3.59-20.73,6.21-5.63,3.67,3.68,2.79,5.65,3.04,12.31,1.54,27.57,9.81,27.87,23.83.06,2.83-3.51,9.35,3.29,7.17,2.33-.75,8.68-9.8,9.58-12.4,5.37-15.41-11.45-28.32-25.66-27.84Z" fill="currentColor"/>
  <path d="M479.71,170.34c1.34-.01,2.7-.05,4.01-.32.87-.18,1.76-.46,2.64-.34.37.05.73.17,1.1.18.44.01.87-.12,1.3-.23.95-.25,1.89-.24,2.83-.2,1.24.05,2.47.15,3.71-.26,2.21-.74,3.96-2.46,5.65-3.99.97-.97,3.05-2.35,2.65-3.85-.19-.51-.77-.88-1.52-1.2-3.85-1.37-7.85-2.38-11.8-3.4-8.23-1.81-37.2-1.64-44.92,3.14-1.67,1.03-3.15,2.28-4.97,2.99-1.72.74-4.18.43-5.28,2.19-.53.82-.45,2.06.22,2.76.53.62,1.41.78,2.17.92.51.1,1.09-.02,1.62.01.24.02.61.12.92.17.04.04.07.09.12.11,1.83.19,3.65.38,5.48.56.88.09,1.77.18,2.64.04.93-.15,1.8-.57,2.74-.66,1.18-.12,2.34.3,3.51.5,2.88.52,5.83-.2,8.76-.21,1.86,0,3.72.27,5.57.48,3.61.42,7.24.62,10.87.59Z" fill="currentColor"/>
  <path d="M166.85,122.79c2.72.64,7.07-1,4.82-4.05-11.28-13.51-23.28-16.65-40.96-9.7-13.35,5.1-26.73,10.6-40.15,15.15-1.76.74-3.63,1.94-3.91,3.21-.16,1.73,1.97,2.62,3.54,3.44,6.96,3.26,14.44,5.49,22.34,4.17l.66-.05c18.39-1.12,34.51-15.24,53.67-12.18Z" fill="currentColor"/>
  <path d="M103.05,179.59c-5.61-12.75-1.84-26.66.01-39.8.09-.64.18-1.29.27-1.93-5.19-.57-10.63-2.29-16.59-5.21-1.18,16.84-.05,32.71-6.75,48.72-1.79,3.93-6.79,9.32-9.54,13.67-.83,1.3-1.53,2.45-.76,3.54,3.29,5.14,7.2-1.13,10.86-2.65,5.07-2.85,10.56-5.19,16.19-7.03,4.85-1.33,8.57-3.5,6.46-8.84l-.15-.47Z" fill="currentColor"/>
  <path d="M407.28,177.05c.92-1.08,2.23-1.86,3.62-2.7,1.74-1.05,3.53-2.13,4.77-3.91l.46-.79c1.74-3.02,4.13-7.15,3.11-10.8-.48-1.71-1.63-3.1-3.41-4.11l-.15-.12c-4.61-4.11-7.72-7.93-9.53-11.67-2.08-4.25-3.18-8.75-4.35-13.52-1.31-5.35-2.67-10.88-5.52-15.93-.16-.29-.32-.58-.49-.88-.68-1.19-1.32-2.31-1.18-3.33.94-2.86,3.4-4.92,5.99-7.11,1.11-.93,2.25-1.9,3.26-2.92l.09-.1c2.02-2.41,2.5-5.55,2.93-8.33.09-.56.17-1.12.27-1.69,1.28-7.77-2-15.49-9.75-22.97-1.88-2.79-4.62-6.09-9.11-7.42-2.56-.95-5.27-1.11-7.9-1.27-1.63-.1-3.17-.19-4.64-.47-1.47-.24-2.78.08-3.94.36-.78.19-1.53.37-2.19.36-6.38-.24-12.97-.36-19.34-.47-4.39-.08-8.92-.15-13.23-.27-1.54-.03-3.22.02-4.84.07-1.44.05-2.8.09-4.03.08h-.18s-.17.03-.17.03c-6.96,1.36-13.24,5.5-17.25,11.37-.86,1.03-1.52,2.16-2.16,3.25-1.03,1.76-1.92,3.29-3.42,4.08l-.3.16-.22.26c-1.33,1.61-2,4.25-1.7,6.72.25,2.08,1.16,3.79,2.54,4.81l.23.15c3.69,1.89,7.23-.42,9.82-2.11.5-.32.98-.64,1.43-.9,1.7-.71,4.56-.91,6.27-.09,1.09.83,1.27,2.99,1.41,4.74l.03.34c.26,4.14.58,8.36.88,12.43,1.04,14,2.13,28.48,1.22,42.64-.57,8.04-2.74,13.51-6.83,17.23-3.77,2.79-2.74,7.48-2.18,10.01l.05.17c.1.31.2.69.32,1.12.56,2.11,1.26,4.73,3.16,5.81.82.47,1.76.57,2.71.3l.27-.1c5.39-2.6,12.17-1.91,16.9-.87l.33.04c14.13.3,27.48.59,39.45-11.3,1.48-1.36,2.2-1.43,2.44-1.4.79.11,1.82,1.76,2.82,3.35l.53.84.07.1c.56.75,1.09,1.63,1.64,2.55,1.53,2.53,3.26,5.4,6.29,6.59l.2.08.21.03c1.2.15,2.78.34,4.44.34,2.84,0,5.93-.56,7.82-2.84ZM404.68,174.86c-1.79,2.16-6.54,1.65-9.02,1.35-1.86-.83-3.11-2.9-4.44-5.1-.56-.93-1.15-1.9-1.79-2.77l-.48-.77c-1.48-2.37-2.87-4.6-5.25-4.92-1.63-.22-3.28.5-5.25,2.31-10.95,10.87-22.96,10.66-36.87,10.36-5.21-1.12-12.61-1.82-18.77,1.08-.63-.26-1.33-2.87-1.55-3.73-.12-.46-.24-.88-.35-1.22-.7-3.18-.76-5.27.94-6.49l.14-.12c6.35-5.71,7.62-13.91,8.02-19.59.92-14.4-.17-29-1.23-43.12-.3-4.06-.62-8.27-.88-12.43l-.03-.37c-.2-2.38-.47-5.64-2.98-7.33l-.17-.1c-2.81-1.45-6.93-1.09-9.38-.01l-.17.08c-.53.31-1.09.67-1.68,1.05-2.56,1.67-4.51,2.79-6.28,1.99-.56-.48-.95-1.34-1.08-2.41-.17-1.42.14-2.97.78-3.91,2.15-1.27,3.35-3.34,4.42-5.18.6-1.03,1.17-2.01,1.87-2.83l.11-.15c3.47-5.12,8.92-8.75,14.97-9.98,1.27,0,2.65-.04,4-.08,1.58-.05,3.2-.1,4.64-.07,4.31.12,8.86.2,13.26.27,6.36.11,12.93.22,19.3.47,1.14.02,2.17-.23,3.09-.45.97-.23,1.8-.44,2.55-.32,1.64.32,3.36.42,5.03.52,2.4.14,4.87.29,6.97,1.08l.13.04c2.82.81,5.03,2.67,7.4,6.21l.24.28c6.99,6.69,9.97,13.45,8.88,20.07-.1.57-.19,1.15-.28,1.75-.37,2.42-.76,4.93-2.13,6.61-.88.89-1.9,1.75-2.97,2.65-2.75,2.32-5.87,4.94-7.08,8.8l-.05.2c-.42,2.27.68,4.19,1.56,5.73.15.27.31.53.46.83,2.63,4.67,3.88,9.74,5.19,15.1,1.16,4.73,2.36,9.62,4.6,14.19,2,4.15,5.38,8.31,10.38,12.77l.32.26.26.18c1.05.58,1.68,1.27,1.92,2.13.64,2.27-1.34,5.69-2.78,8.19l-.34.6c-.83,1.16-2.23,2-3.7,2.89-1.55.94-3.16,1.91-4.46,3.42Z" fill="currentColor"/>
  <path d="M661.31,83.79c1.72-.67,4.59-.79,6.27.08,1.07.85,1.19,3.03,1.29,4.78l.02.34c.15,4.15.35,8.37.54,12.45.67,14.03,1.36,28.53.08,42.66-.78,8.02-3.1,13.43-7.29,17.04-3.85,2.69-2.94,7.41-2.45,9.95l.04.17c.09.31.18.7.29,1.13.51,2.12,1.14,4.76,3,5.89.81.49,1.74.62,2.7.37l.28-.1c5.46-2.46,12.21-1.58,16.92-.41l.33.05c14.13.68,27.46,1.33,39.74-10.24,1.52-1.32,2.24-1.37,2.48-1.33.79.13,1.77,1.81,2.73,3.43l.51.86.07.1c.54.77,1.04,1.65,1.57,2.59,1.46,2.57,3.11,5.49,6.12,6.76l.2.08.21.03c1.32.2,3.12.46,4.99.46,2.68,0,5.51-.55,7.34-2.64.95-1.05,2.28-1.8,3.69-2.6,1.76-1,3.59-2.03,4.88-3.78l.48-.78c1.82-2.97,4.32-7.04,3.39-10.71-.43-1.72-1.54-3.14-3.3-4.21l-.14-.12c-4.49-4.23-7.51-8.13-9.21-11.92-1.96-4.31-2.95-8.84-3.99-13.63-1.17-5.38-2.38-10.95-5.09-16.08-.15-.29-.31-.59-.47-.89-.65-1.2-1.26-2.34-1.09-3.36,1.02-2.83,3.53-4.83,6.18-6.94,1.13-.9,2.3-1.83,3.33-2.83l.09-.1c2.08-2.36,2.65-5.48,3.15-8.24.1-.56.2-1.11.32-1.68,1.49-7.73-1.58-15.54-9.13-23.22-1.81-2.84-4.45-6.22-8.91-7.66-2.53-1.02-5.24-1.25-7.86-1.48-1.63-.14-3.17-.27-4.63-.6-1.47-.28-2.78,0-3.95.25-.79.17-1.54.33-2.2.3-6.37-.42-12.96-.71-19.33-.99-4.38-.19-8.91-.39-13.21-.63-1.54-.08-3.22-.07-4.84-.06-1.44,0-2.8.02-4.03-.03h-.18s-.17.02-.17.02c-7,1.17-13.38,5.15-17.55,10.9-.89,1-1.58,2.11-2.24,3.19-1.08,1.74-2,3.23-3.53,3.99l-.3.15-.22.26c-1.38,1.58-2.12,4.19-1.88,6.67.2,2.09,1.05,3.82,2.41,4.88l.23.15c3.64,1.99,7.24-.23,9.87-1.84.51-.31.99-.61,1.45-.87ZM658.08,81.75c-2.6,1.6-4.59,2.67-6.33,1.82-.55-.49-.92-1.37-1.02-2.44-.13-1.42.22-2.97.88-3.89,2.18-1.21,3.44-3.25,4.56-5.06.63-1.02,1.23-1.98,1.94-2.78l.12-.15c3.61-5.03,9.15-8.51,15.23-9.58,1.26.04,2.65.04,4,.03,1.58,0,3.21-.02,4.64.05,4.31.24,8.85.44,13.24.63,6.35.28,12.92.57,19.29.99,1.15.05,2.18-.17,3.1-.37.97-.21,1.81-.39,2.55-.25,1.63.36,3.35.51,5.02.65,2.39.21,4.86.42,6.94,1.27l.13.05c2.79.89,4.95,2.8,7.23,6.41l.23.29c6.8,6.88,9.61,13.72,8.34,20.3-.12.57-.22,1.15-.33,1.74-.44,2.41-.89,4.9-2.31,6.55-.91.87-1.94,1.7-3.04,2.57-2.81,2.24-6,4.78-7.31,8.61l-.06.2c-.48,2.26.57,4.2,1.41,5.77.15.27.29.54.44.84,2.5,4.74,3.61,9.84,4.78,15.24,1.03,4.76,2.1,9.68,4.21,14.31,1.89,4.2,5.15,8.45,10.03,13.05l.31.27.25.18c1.04.61,1.64,1.32,1.86,2.18.57,2.29-1.49,5.65-2.99,8.11l-.36.59c-.86,1.13-2.28,1.94-3.78,2.79-1.58.89-3.21,1.82-4.55,3.3-1.84,2.11-6.58,1.48-9.06,1.11-1.84-.88-3.03-2.99-4.3-5.22-.54-.95-1.09-1.93-1.71-2.81l-.46-.79c-1.41-2.41-2.74-4.68-5.11-5.06-1.62-.27-3.29.41-5.31,2.17-11.23,10.58-23.24,10.04-37.13,9.37-5.18-1.26-12.56-2.16-18.79.57-.62-.27-1.25-2.9-1.45-3.77-.11-.46-.21-.88-.31-1.23-.61-3.2-.62-5.28,1.12-6.46l.15-.11c6.5-5.54,7.99-13.7,8.54-19.37,1.3-14.37.61-29-.07-43.14-.19-4.07-.39-8.28-.54-12.44l-.02-.37c-.13-2.38-.32-5.65-2.78-7.41l-.17-.11c-2.77-1.52-6.9-1.27-9.37-.26l-.17.08c-.54.29-1.11.64-1.7,1.01Z" fill="currentColor"/>
  <path d="M611.14,60.81c-12.02-2.43-37.31,1.06-47.72,8.1-13.92,9.41-23.91,27.89-26.09,48.22-2.07,19.31,3.15,37.1,14.33,48.8,7.61,7.96,15.48,11.92,25.52,12.84,5.27.48,10.38.86,15.33.86,11.69,0,22.52-2.1,32.64-9.89,18.45-14.2,27.33-43.94,21.11-70.72-4.82-20.74-17.62-34.67-35.12-38.2ZM623.07,167.03c-13.43,10.33-28.59,9.89-45.58,8.34-9.29-.85-16.27-4.38-23.37-11.8-10.48-10.97-15.37-27.77-13.41-46.08,2.08-19.36,11.51-36.9,24.62-45.76,7.58-5.13,24.34-8.29,36.56-8.29,3.27,0,6.22.23,8.58.7,16.14,3.26,27.97,16.25,32.48,35.64,5.93,25.54-2.42,53.83-19.87,67.25Z" fill="currentColor"/>
  <path d="M975.14,158.37l-.14-.13c-4.32-4.41-7.17-8.43-8.71-12.29-1.79-4.39-2.58-8.95-3.42-13.78-.95-5.43-1.93-11.04-4.42-16.27-.14-.3-.28-.6-.43-.9-.6-1.23-1.17-2.4-.96-3.4,1.13-2.79,3.72-4.68,6.46-6.68,1.17-.85,2.38-1.74,3.45-2.7l.1-.09c2.18-2.27,2.87-5.37,3.49-8.11.12-.55.25-1.1.39-1.66,1.8-7.66-.94-15.59-8.17-23.58-1.69-2.91-4.19-6.39-8.59-8.02-2.49-1.12-5.18-1.47-7.79-1.8-1.62-.21-3.15-.4-4.6-.79-1.46-.34-2.78-.11-3.96.09-.79.14-1.54.26-2.21.21-6.35-.68-12.93-1.24-19.28-1.78-4.36-.37-8.88-.76-13.16-1.17-1.54-.14-3.21-.2-4.83-.25-1.44-.05-2.8-.1-4.02-.2h-.17s-.17,0-.17,0c-7.04.89-13.58,4.59-17.98,10.17-.93.97-1.66,2.05-2.37,3.09-1.15,1.69-2.13,3.15-3.69,3.84l-.31.14-.23.25c-1.44,1.52-2.29,4.1-2.15,6.58.11,2.1.9,3.86,2.21,4.98l.22.16c3.56,2.14,7.25.07,9.94-1.44.52-.29,1.02-.57,1.49-.81,1.75-.6,4.61-.6,6.27.33,1.03.9,1.06,3.07,1.09,4.82v.34c-.01,4.15.01,8.37.04,12.45.09,14.04.19,28.57-1.67,42.63-1.11,7.98-3.65,13.3-7.99,16.73-3.96,2.53-3.24,7.28-2.85,9.84l.03.17c.08.31.16.71.24,1.14.42,2.14.94,4.81,2.76,6.01.79.52,1.71.69,2.68.48l.28-.09c5.55-2.23,12.27-1.08,16.93.28l.33.06c14.08,1.26,27.38,2.45,40.13-8.6,1.57-1.26,2.29-1.28,2.53-1.23.78.16,1.7,1.88,2.58,3.54l.47.88.06.11c.51.79.97,1.7,1.47,2.66,1.35,2.63,2.88,5.61,5.83,7l.19.09.21.04c1.49.29,3.58.68,5.71.68,2.45,0,4.96-.53,6.69-2.35,1-1.01,2.35-1.71,3.79-2.45,1.8-.93,3.67-1.89,5.03-3.58l.51-.76c1.94-2.89,4.6-6.85,3.83-10.57-.36-1.74-1.41-3.2-3.13-4.34ZM971.61,171.38l-.38.57c-.91,1.1-2.36,1.84-3.89,2.63-1.61.83-3.28,1.69-4.68,3.11-1.93,2.03-6.64,1.2-9.09.74-1.8-.95-2.91-3.11-4.08-5.39-.5-.97-1.01-1.97-1.59-2.88l-.43-.81c-1.31-2.46-2.55-4.78-4.9-5.27-1.61-.33-3.31.27-5.39,1.95-11.66,10.11-23.63,9.08-37.48,7.84-5.12-1.48-12.45-2.67-18.8-.2-.61-.3-1.13-2.95-1.3-3.82-.09-.47-.18-.89-.26-1.24-.48-3.22-.4-5.3,1.38-6.41l.15-.1c6.72-5.26,8.54-13.36,9.33-19,1.89-14.31,1.8-28.95,1.71-43.11-.03-4.07-.05-8.29-.03-12.45v-.37c-.04-2.39-.09-5.66-2.48-7.51l-.17-.11c-2.7-1.64-6.84-1.56-9.36-.65l-.17.07c-.55.27-1.14.6-1.74.94-2.66,1.49-4.69,2.48-6.4,1.56-.53-.51-.86-1.41-.92-2.48-.08-1.42.35-2.95,1.04-3.85,2.23-1.13,3.57-3.11,4.77-4.87.67-.99,1.31-1.93,2.06-2.69l.12-.14c3.81-4.87,9.49-8.12,15.61-8.94,1.26.1,2.65.14,4,.19,1.58.06,3.2.11,4.64.24,4.29.41,8.81.8,13.19,1.17,6.34.54,12.9,1.1,19.25,1.78,1.14.1,2.18-.08,3.11-.24.98-.17,1.83-.31,2.56-.14,1.61.43,3.33.65,4.98.86,2.38.31,4.84.62,6.88,1.55l.13.05c2.75,1,4.83,3,6.96,6.7l.22.3c6.52,7.15,9.04,14.1,7.5,20.62-.14.56-.27,1.13-.4,1.72-.54,2.39-1.09,4.87-2.58,6.46-.94.83-2.01,1.62-3.14,2.45-2.9,2.12-6.19,4.53-7.66,8.3l-.06.2c-.57,2.24.4,4.23,1.17,5.82.13.28.27.55.4.85,2.31,4.84,3.2,9.98,4.15,15.42.84,4.8,1.7,9.76,3.62,14.47,1.71,4.27,4.8,8.66,9.49,13.45l.3.28.25.19c1.01.65,1.59,1.38,1.77,2.25.48,2.31-1.72,5.59-3.33,7.98Z" fill="currentColor"/>
  <path d="M817.87,92.09c1.02-.62,6.23-.45,9.03-.35,2.01.07,3.75.13,4.91.04,11.5-.84,20.58-6.21,29.43-17.43,1.92-2.44,6.3-8.59,5.44-13.06-.29-1.51-1.16-2.72-2.5-3.49l-.66-.38-.72.23c-1.42.46-2.96.44-4.59.42-1.14-.01-2.32-.03-3.5.13-1.05.14-2.11.48-3.13.8-1.07.34-2.17.69-3.2.79-5.29.51-10.9-.66-16.32-1.79-5.49-1.15-11.17-2.33-16.76-1.88-19.85,1.6-46.37,27.68-53.36,47.1-6.15,17.08-1.87,37.74,11.17,53.93,10.85,13.48,25.53,21.11,40.13,21.11,1.79,0,3.59-.12,5.37-.35,15.24-2,37.13-16.4,42.49-31.98.97-2.81.7-5.94-.69-7.97-1.02-1.5-2.53-2.33-4.38-2.42-2.1-.1-4.89,1.32-8.93,3.49-1.7.91-3.3,1.77-4.4,2.18-6.63,2.44-23.07,4.3-26.47.71-.73-.78-.66-1.3-.35-2.69.15-.66.32-1.41.31-2.23-.01-1-.06-1.91-.11-2.8-.12-2.14-.23-3.99.31-6.47,1.01-4.69,4.62-5.13,10.42-5.44,1.51-.08,3.08-.17,4.53-.4,7.16-1.15,10.87-4.13,15.58-9.59,4.25-4.93,8.57-11.56,4.99-15.23-3.19-3.27-9.8-2.08-15.12-1.13-1.8.32-3.49.62-4.67.68-2.35.11-4.7-.11-7.18-.34-2.45-.23-4.98-.46-7.53-.36-.12-.21-.3-.72-.28-1.53.03-1.24.48-2.14.72-2.29ZM813.82,95.61c.27,1.88,1.24,3.21,2.67,3.65l.29.09.3-.02c2.48-.14,4.94.09,7.56.33,2.49.23,5.07.47,7.65.36,1.4-.06,3.2-.39,5.11-.73,4.28-.77,10.15-1.82,12.09.16,1.24,1.27-.91,5.74-5.13,10.63-4.35,5.04-7.34,7.45-13.55,8.45-1.28.21-2.69.28-4.18.36-5.32.29-11.94.65-13.56,8.12-.63,2.93-.51,5.09-.38,7.38.05.84.1,1.7.11,2.64,0,.42-.11.92-.23,1.44-.33,1.45-.83,3.64,1.19,5.78,5.42,5.73,24.94,2.05,30.12.15,1.32-.49,3.03-1.4,4.83-2.37,2.33-1.25,5.85-3.15,7.16-3.09h0c.77.04,1.32.33,1.73.93.77,1.13.88,3.21.28,4.96-4.9,14.22-25.73,27.88-39.72,29.71-15.13,1.98-30.97-5.32-42.41-19.52-12.29-15.27-16.36-34.68-10.61-50.64,6.6-18.34,32.24-43.39,50.44-44.86.76-.06,1.51-.09,2.28-.09,4.37,0,8.83.93,13.51,1.91,5.67,1.18,11.54,2.41,17.34,1.85,1.39-.13,2.73-.56,3.9-.93.92-.29,1.79-.57,2.55-.67.94-.12,1.95-.11,3.01-.1,1.55.02,3.15.04,4.79-.34.19.22.31.48.37.8.46,2.37-2.07,6.88-4.77,10.31-8.32,10.54-16.4,15.37-27.01,16.14-.98.07-2.71.01-4.55-.05-5.53-.19-9.29-.22-11.01.91-1.84,1.2-2.5,4.18-2.18,6.37Z" fill="currentColor"/>
  <path d="M308.15,167.9c1.67-4.08-2.01-8.91-4.96-12.8-.92-1.2-1.78-2.34-2.33-3.25-5.34-8.9-7.69-18.13-10.17-27.9-1.69-6.65-3.44-13.54-6.22-20.21-.69-1.65-1.6-2.89-2.48-4.1-.6-.82-1.17-1.59-1.63-2.45-1.17-2.16-2.38-4.55-3.67-7.08-4.79-9.42-10.22-20.11-16.91-26.4-1.18-1.11-15.52-6.83-17.48-6.63l-.26.03-.24.1c-6.58,2.81-17.83,8.53-19.14,15.24-.33,1.68-.19,4.23,2.37,6.81.93.94,2.6,1.77,4.72,2.82,3.22,1.6,8.02,3.98,7.88,6.3-1.05,1.67-2.11,3.35-3.18,5.02-2.78,4.36-5.65,8.88-8.21,13.47-2.72,4.87-5.16,9.8-7.52,14.57-4.85,9.79-9.44,19.03-16.21,27.85-1.08,1.41-2.39,2.88-3.77,4.43-4.18,4.69-8.92,10.01-9.39,16.09-.2,2.52.42,4.33,1.83,5.37,2.73,2.03,7.1.33,11.32-1.31,1.75-.68,3.41-1.32,4.42-1.46,2.98-.39,8.78-.24,11.74-.06,3.57.22,7.81,1.02,12.29,1.87,6.66,1.26,13.54,2.56,18.77,1.99,3.21-.34,7.23-2.45,11.12-4.48,2.56-1.33,6.08-3.16,7.14-3.05,1.53.15,3.96,3.12,5.92,5.51,2.11,2.57,4.1,5,6.17,5.88,1.9.8,4.36,1.18,6.91,1.18,4.44,0,9.2-1.14,11.94-3.16,1.63-1.21,8.36-8.11,9.21-10.2ZM281.41,176.95c-1.3-.55-3.19-2.86-4.86-4.9-2.72-3.32-5.28-6.45-8.21-6.74-.13-.01-.26-.02-.39-.02-1.96,0-4.62,1.33-8.66,3.44-3.44,1.8-7.35,3.83-9.92,4.11-4.73.51-11.36-.74-17.77-1.95-4.59-.87-8.93-1.69-12.71-1.92-3.21-.2-9.16-.35-12.4.08-1.42.19-3.18.87-5.21,1.66-2.56.99-6.84,2.65-8.06,1.75-.39-.29-.56-1.16-.47-2.38.39-4.94,4.72-9.8,8.54-14.1,1.43-1.6,2.77-3.11,3.93-4.62,6.97-9.08,11.84-18.91,16.56-28.41,2.34-4.73,4.77-9.62,7.45-14.42,2.51-4.5,5.36-8.97,8.11-13.3,1.13-1.78,2.27-3.56,3.38-5.34l.16-.25.06-.29c1.07-4.98-5.13-8.06-9.66-10.31-1.61-.8-3.28-1.63-3.82-2.17-1.63-1.65-1.61-2.94-1.45-3.76.72-3.67,6.96-8.37,16.71-12.59,2.45.55,13.57,4.83,14.73,5.67,6.26,5.89,11.55,16.29,16.21,25.47,1.3,2.55,2.52,4.96,3.71,7.15.58,1.07,1.24,1.97,1.89,2.85.8,1.09,1.56,2.12,2.09,3.39,2.68,6.44,4.4,13.2,6.06,19.74,2.43,9.58,4.95,19.48,10.55,28.82h0c.64,1.07,1.56,2.28,2.54,3.56,2.3,3.02,5.45,7.16,4.52,9.44-.55,1.25-6.49,7.57-8.09,8.76-3.33,2.46-11.44,3.29-15.51,1.58Z" fill="currentColor"/>
  <path d="M185.37,178.73c-1.04-1.24-2.12-2.51-3.02-3.8-5.44-7.67-9.27-21.56-6.3-30,1.3-3.68,1.36-7.06,1.42-10.33.03-1.51.05-2.96.19-4.44.12,0,.25.01.38.02,1.35.06,2.88.13,4.23-.68,1.39-.83,2.25-2.48,2.24-4.31,0-1.45-.5-2.74-.96-3.84-.91-2.17-2.29-4.19-3.62-6.14-1.72-2.53-3.35-4.93-3.84-7.35-.75-3.77-.25-8.37.24-12.82.22-2,.43-3.89.52-5.69.57-10.61,2.18-21.2,10.07-26.77.94-.67,1.99-1.28,3.09-1.93,3.35-1.97,6.82-4,7.93-7.84,1.42-4.92-2.3-9.63-6.52-11.57-4.1-1.88-8.75-1.9-13.15-1.75-5.28.18-10.62.52-15.87,1.02-5.63.54-12.01,1.44-16.53,5.36-6.07,5.27-6.46,13.76-6.36,21.3l.3,21.03c.01.99.09,2.01.17,3,.3,3.85.55,7.17-2.44,9.31-1.07.77-2.51,1.09-4.03,1.43l-.76.17c-.35.08-.81.18-1.36.29-5.07,1.04-9.73,2.17-11.03,4.62-.08.15-.15.3-.22.45,0,.01-.01.02-.02.04-.01,0-.02,0-.03,0-1.21-.1-2.47-.21-3.42-.72-1.49-.79-1.19-2.61.05-6.39.41-1.25.8-2.44.94-3.51.52-3.97.37-7.98.22-11.85l-.07-1.9c-.17-4.88-.39-10.12-.94-15.42.07-.95.4-5.71.06-8.16-.48-3.48-1.02-7.42-3.36-10.73l-.16-.22-.22-.16c-1.44-1.06-3.21-1.81-5.25-2.21-4.4-1.72-10.11-1.2-15.16-.73-1.4.13-2.73.25-3.97.32l-14.65.83c-3.82.22-7.47.6-10.21,2.92-2.02,1.71-3.05,4.07-2.99,6.84.08,4.01,2.5,8.44,6.15,11.28,2.14,1.67,4.54,3,6.86,4.28,3.02,1.67,5.88,3.26,8.09,5.47-.1.89-.53,2.77-.74,3.65-.19.82-.29,1.26-.33,1.55-.34,2.46-.62,4.97-.83,7.46-.39,4.78-.53,9.62-.4,14.41.03,1.15.23,2.34.42,3.49.27,1.61.55,3.28.29,4.6-.35,1.8-1.7,3.08-3.26,4.56-.48.46-.97.92-1.44,1.41-.82.85-1.84,1.9-2.37,3.32-1.23,3.32.79,6.54,2.27,8.9,2.68,4.29,3.93,8.24,4.03,12.8.04,1.83-.55,3.57-1.18,5.41-.67,1.97-1.37,4.02-1.34,6.33.05,3.52-.08,7.01-.27,11.13l-.03.63c-.09,1.89-.85,3.38-2.25,4.44l-.55.42-.11.69c-.18,1.18-.38,2.1-.63,2.91-1.39,4.52-4.48,7.92-9.47,10.41l-.54.27-1.35,2.95c-.8,1.74-1.67,3.32-2.61,4.71l-.3.45.02.54c.08,2.73.33,5.21.78,7.58.25,1.33.84,3.99,2.02,6.84l.42,1.03,1.11.02c.33,0,.66.01.99.01,9.98,0,19.22-3.07,28.17-6.05,5.1-1.7,10.37-3.45,15.79-4.64l6.1-2.7c1.43-.65,3.58-1.64,4.57-3.64,1.01-2.04.4-4.23-.05-5.82-2.25-8.08-3.79-16.41-4.58-24.75-.21-2.22-.17-4.36-.13-6.63.02-1.23.04-2.46.02-3.7-.02-1.33-.48-2.91-.97-4.58-.56-1.91-1.32-4.52-.82-5.53.17-.35,1.89-.27,2.45-.24,4.79.23,9.33-1.56,13.33-3.14l13.27-5.24c.06-.02.11-.04.14-.05.48.52,1.28,2.83.07,13-.08.64-.14,1.14-.16,1.44-.56,6.91-1.47,15.03-3.91,22.77-1.68,5.33.36,14,5.61,17.62,1.44.99,3.01,1.71,4.53,2.41.88.4,1.72.79,2.52,1.22,2.87,1.53,5.46,3.76,7.98,5.92,3.88,3.33,7.89,6.77,13.21,8.07,5.23,1.27,10.95.06,14.94-3.17,4.19-3.39,6.19-8.8,5.1-13.78-.9-4.11-3.62-7.34-6.25-10.47ZM89.01,49.24c1.3-.07,2.66-.2,4.09-.33.77-.07,1.55-.14,2.35-.2-1.66.29-3.32.55-5.01.63-1.04.05-2.08.04-3.12,0l1.69-.1ZM75.63,69.02c-2.31-1.28-4.48-2.48-6.42-3.99-2.83-2.2-4.78-5.69-4.84-8.67-.04-1.73.57-3.13,1.79-4.17,1.93-1.64,4.98-1.94,8.2-2.12l.5-.03c-1.66.59-3.15,1.5-4.23,2.81-2.23,2.71-2.18,6.71-.35,9.68,1.89,3.07,5.27,5,8.33,7.08,2.06,1.4,4.12,3.05,5.44,5.04-2.48-2.34-5.49-4.01-8.42-5.64ZM184.38,200.33c-3.13,2.53-7.84,3.52-12,2.51-4.52-1.1-8.06-4.13-11.8-7.34-2.65-2.27-5.39-4.63-8.59-6.33-.9-.48-1.82-.9-2.71-1.31-1.45-.66-2.82-1.29-4.01-2.12-3.94-2.71-5.57-9.76-4.3-13.8,2.55-8.07,3.48-16.42,4.06-23.52.02-.27.08-.73.15-1.31.99-8.28,1.12-14.19-1.43-16.16-.55-.42-1.72-1.03-3.41-.36l-13.27,5.24c-3.68,1.45-7.85,3.1-11.91,2.9-1.69-.08-4.51-.22-5.67,2.13-1.09,2.2-.23,5.15.6,7.99.4,1.38.82,2.8.83,3.68.02,1.2,0,2.39-.02,3.58-.04,2.26-.08,4.6.15,7.01.81,8.54,2.39,17.07,4.69,25.35.4,1.43.67,2.59.27,3.41-.42.85-1.62,1.45-2.93,2.05l-5.39,2.46h-.06c-5.57,1.24-10.93,3.02-16.11,4.74-9.02,3-17.55,5.84-26.89,5.87-.79-2.16-1.22-4.09-1.41-5.13-.38-2.04-.61-4.18-.7-6.52.92-1.42,1.78-3.01,2.57-4.72l.86-1.87c5.55-2.9,9.04-6.89,10.66-12.18.25-.81.45-1.69.63-2.74,1.87-1.64,2.92-3.88,3.05-6.54l.03-.61c.2-4.21.32-7.76.28-11.37-.02-1.73.55-3.41,1.16-5.19.7-2.04,1.42-4.15,1.36-6.59-.12-5.14-1.56-9.75-4.55-14.53-1.22-1.95-2.61-4.17-1.96-5.92.28-.75.96-1.45,1.62-2.13.44-.45.89-.88,1.34-1.31,1.82-1.72,3.7-3.51,4.26-6.37.38-1.93.05-3.91-.28-5.82-.18-1.08-.35-2.1-.38-3.01-.12-4.66,0-9.39.39-14.04.2-2.42.47-4.87.81-7.27.03-.2.14-.67.28-1.25.44-1.91.72-3.19.81-4.11l3.79-1.27c.36.72.68,1.45.93,2.19-.98,2.55-1.57,5.32-1.54,8.05.51,10.96.45,21.36-.51,32.27,5.85-1.78,11.75-3.73,17.62-5.73-.02-3.12-.02-6.24.02-9.36.19-2.91,1.07-5.7,1.29-8.53.26-3.28-.61-6.96-.9-10.24-.25-2.71-.49-5.46-.02-8.14.38-2.15.44-4.23.44-6.34l6.95-2.34c.52,5.12.75,10.21.91,14.95l.07,1.91c.14,3.73.29,7.59-.2,11.27-.1.76-.44,1.79-.8,2.89-1.07,3.26-2.69,8.2,1.59,10.46,1.56.82,3.31.98,4.71,1.1.46.04,1.32.11,2.13-.37.78-.47,1.1-1.19,1.31-1.66.04-.08.08-.17.12-.25.33-.57,2.11-1.53,8.71-2.88.58-.12,1.08-.22,1.45-.31l.73-.17c1.7-.38,3.63-.81,5.27-1.98,4.55-3.25,4.16-8.29,3.85-12.34-.08-.98-.15-1.9-.16-2.78l-.3-21.03c-.1-7.09.22-14.37,5.19-18.69,3.76-3.27,9.52-4.06,14.62-4.55,5.18-.49,10.45-.83,15.66-1.01,4-.14,8.2-.14,11.62,1.44,2.97,1.37,5.53,4.56,4.67,7.54-.73,2.54-3.48,4.15-6.38,5.85-1.12.65-2.27,1.33-3.33,2.08-9.08,6.4-10.9,17.9-11.51,29.37-.09,1.71-.29,3.55-.51,5.5-.52,4.7-1.05,9.57-.2,13.85.62,3.1,2.52,5.9,4.36,8.6,1.29,1.9,2.52,3.7,3.3,5.55.34.8.69,1.71.7,2.53,0,.6-.24,1.17-.58,1.37-.48.29-1.43.25-2.34.21-.76-.03-1.55-.07-2.32.06l-1.22.2-.18,1.23c-.32,2.19-.36,4.27-.4,6.27-.06,3.13-.11,6.1-1.23,9.26-3.44,9.74.82,24.76,6.73,33.1.99,1.4,2.11,2.73,3.2,4.02,2.47,2.94,4.81,5.71,5.53,9.01.81,3.67-.77,7.85-3.91,10.4Z" fill="currentColor"/>
  <path d="M473.82,179.72c1.76-.06,3.7-.02,5.75.04,1.41.04,2.87.07,4.33.07,4.52,0,9.14-.35,12.84-2.16,4.54-2.22,8.65-5.78,11.95-8.64l.92-.8c7.14-6.17,16.02-13.84,19.4-22.78,2.6-6.87,2.07-14.57-1.43-21.12-3.49-6.53-9.57-11.22-16.66-12.86.71-1.69,1.46-3.41,2.76-4.54.33-.28.76-.52,1.11-.69,2.43-1.21,4.29-2.99,5.37-5.16,2.59-5.21,3.54-9.81,2.9-14.09-.31-2.08-1.01-4.05-1.59-5.53-4.75-12.21-14.01-26.58-31.06-25.73-4.51.22-8.64,1.93-12.64,3.59-2.51,1.04-5.11,2.12-7.71,2.77-6,1.5-12.4,1.83-18.52.96-.44-.06-.88-.13-1.32-.2-3.01-.46-6.11-.94-9.18.11-3.02,1.04-5.15,3.27-7.21,5.44-.94.99-1.83,1.92-2.78,2.73-2.15,1.82-3.59,4.01-4.17,6.36-.17.7-.43,1.38-.76,2.02l-.13.34c-.98,3.58,1.66,6.74,4.22,8.36.9.57,1.84,1.04,2.74,1.49,1.41.71,2.75,1.37,3.77,2.33,1.08,1.01,1.84,2.39,2.39,3.48,3.35,6.72,2.62,16.41,1.98,24.95-.15,1.99-.29,3.87-.38,5.66-.3,6.17-1.45,12.47-3.42,18.72-.22.68-.43,1.37-.64,2.07-1.35,4.43-2.75,9.01-5.8,12.34l-.42.45c-.59.62-1.25,1.32-1.76,2.18-1.01,1.7-1.25,3.71-.7,5.8.69,2.61,2.53,4.99,4.92,6.35,3.74,2.13,8.18,2.17,12.16,2.21,3.51.03,6.94.12,10.26.76,1.49.29,2.94.69,4.48,1.11,2.15.59,4.37,1.2,6.67,1.48,2.49.3,4.97.21,7.37.12ZM455.95,173.67c-3.6-.7-7.2-.79-10.93-.82-3.68-.03-7.48-.07-10.45-1.76-1.59-.91-2.86-2.54-3.32-4.27-.22-.83-.34-2.05.33-3.19.32-.53.8-1.04,1.31-1.58.15-.16.31-.33.46-.49,3.57-3.9,5.08-8.86,6.54-13.65.21-.68.42-1.36.63-2.04,2.06-6.53,3.26-13.12,3.58-19.58.08-1.75.23-3.6.37-5.57.68-8.98,1.44-19.17-2.32-26.73-.67-1.35-1.63-3.07-3.11-4.45-1.39-1.29-3.01-2.11-4.57-2.89-.87-.43-1.69-.85-2.44-1.32-1.6-1.01-3.13-2.82-2.8-4.44.41-.82.73-1.69.95-2.59.51-2.07,1.95-3.63,3.06-4.57,1.1-.93,2.09-1.97,3.05-2.98,1.86-1.95,3.62-3.8,5.85-4.57,2.27-.78,4.84-.38,7.55.03.46.07.91.14,1.36.2,6.55.93,13.41.57,19.83-1.03,2.84-.71,5.56-1.84,8.19-2.92,3.9-1.61,7.58-3.14,11.51-3.33,15.03-.75,23.37,12.41,27.72,23.57.55,1.4,1.14,3.07,1.4,4.8.53,3.57-.31,7.52-2.58,12.08-.74,1.5-2.07,2.75-3.83,3.63-.52.26-1.2.63-1.82,1.16-1.93,1.67-2.89,3.94-3.73,5.93-.2.48-.62,1.47-.22,2.55.52,1.41,1.96,1.77,2.43,1.89l.21.05h0c6.15,1.42,11.41,5.48,14.45,11.15,3.04,5.69,3.5,12.37,1.25,18.32-3.08,8.14-11.59,15.5-18.44,21.41l-.92.8c-3.32,2.87-7.08,6.13-11.22,8.16-4.16,2.04-10.24,1.88-15.6,1.75-1.38-.03-2.71-.07-3.98-.07-.68,0-1.34,0-1.98.03-2.27.08-4.61.17-6.84-.1-2.06-.25-4.06-.8-6.18-1.38-1.53-.42-3.11-.86-4.73-1.17Z" fill="currentColor"/>
  <path d="M1063.85,121.58c-12.41-6.62-45.23-17.01-48.6-31.25-.51-2.14.31-5.16-1.65-6.39-2.29-.45-8.79,6.83-10.16,8.8-5.75,8.26-4.26,14,2.85,20.49,14.39,13.12,59.95,22.7,64.08,42.24.4,1.89-.95,3.58.81,4.5,1.56.82,2.96.7,4.38-.31.77-.54,7.55-10.11,7.99-11.28,5.12-13.73-9.85-21.56-19.7-26.82Z" fill="currentColor"/>
  <path d="M1062.86,165.88c-18.5,1.89-37.03-10.75-51.75-8.37-5.21.84-11.73,4.2-15.23,8.16-1.8,2.03-8.19,11.57-3.15,12.8,5.53-.7,11.07-2.03,16.69-1.98,14.71.13,30.72,10.12,45.48,4.16,3.22-1.3,15.03-10.18,15.24-13.37.23-3.5-5.95-1.53-7.28-1.39Z" fill="currentColor"/>
  <path d="M1024.54,78.5c8.77-1.13,14.9-.23,23.1,2.82,1.8.67,12.01,5.3,12.81,6.15,2.15,2.3-2.07,3.96-2.46,6.71-.88,6.22.73,16.91,7.62,19.08.8-.04,1.07-.56,1.41-1.17.71-1.28.32-13.61-.11-15.7-.79-3.8-2.79-5.37-5.16-8.04,4.61-1.2,8.4-1.57,12.43-4.41,1.92-1.35,10.9-10.49,8.72-12.65-16.6-.33-29.49-14.81-46.73-7.41-2.95,1.26-17.3,11.27-17.06,14.16.23,2.78,4.09.63,5.44.45Z" fill="currentColor"/>
  <path d="M1014.69,150.68c5.26-.35,5.33-15.02,4.01-18.67-.4-1.11-2.26-3.54-3.49-3.32-.59.1-1.52,1.85-1.68,2.52.63,3.53-5.96,19.93,1.16,19.47Z" fill="currentColor"/>
  <path d="M1077.51,116.98c-1.36-4.09-2.52-17.42-1.8-21.38.35-1.94,3.81-4.73,6.34-6.76,1.55-1.25,3.02-2.43,4.04-3.54,1.05-1.14,7.94-10.04,8.51-11.89.89-2.93-.04-6.07-2.61-8.83-2.73-2.93-5.65-2.98-8.22-3.02-1.19-.02-2.42-.04-3.69-.33-3.11-.7-6.38-2.14-9.84-3.67-3.7-1.63-7.53-3.32-11.4-4.17-21.95-4.83-31.89,3.38-46.29,17.17-1.27,1.22-2.63,2.47-4.04,3.77-9.12,8.42-19.47,17.97-19.61,28.97-.07,5.35,2.38,10.49,7.29,15.27,1.55,1.51,3.09,2.51,4.45,3.4,2.9,1.89,4.35,2.84,4.2,6.95-.12,3.34-1.38,14.62-2.14,16.59-1.52,3.97-4.03,5.99-6.94,8.34-1.31,1.06-2.66,2.15-4.03,3.49-2.71,2.65-7.93,8.31-10.31,12.65-5.49,10.01.78,15.15,5.97,18.15,3.21,1.86,6.68.46,9.74-.77,1.42-.57,2.77-1.12,4-1.33,6.41-1.09,16.12.83,25.51,2.69,7.44,1.47,15.14,2.99,21.35,3.04.16,0,.32,0,.47,0,7.32,0,10.39-1.46,16.21-5.95,8.34-6.44,23.06-24.08,28.12-33.72,8.95-17.01-8.7-30.36-15.26-35.13ZM1089.5,150.38c-4.79,9.11-19.23,26.43-27.11,32.51-5.34,4.12-7.73,5.24-14.39,5.18-5.87-.05-13.39-1.53-20.66-2.97-7.67-1.51-15.54-3.07-21.99-3.07-1.73,0-3.36.11-4.86.37-1.62.28-3.22.92-4.76,1.54-2.49,1.01-4.85,1.96-6.5,1-6.53-3.77-7.77-7.34-4.58-13.16,1.89-3.45,6.33-8.53,9.66-11.79,1.24-1.22,2.52-2.25,3.76-3.25,3.18-2.57,6.19-5,8.07-9.89,1.04-2.7,2.28-14.75,2.38-17.79.22-6.2-2.88-8.22-5.88-10.18-1.28-.83-2.6-1.7-3.89-2.96-4.21-4.1-6.23-8.21-6.17-12.56.12-9.41,9.84-18.38,18.42-26.3,1.42-1.31,2.8-2.58,4.09-3.82,13.93-13.33,22.79-20.66,42.93-16.23,3.51.77,7.17,2.38,10.7,3.94,3.47,1.53,7.06,3.12,10.52,3.9,1.64.37,3.13.39,4.45.42,2.36.04,3.92.06,5.57,1.84,1.16,1.24,2.41,3.16,1.8,5.17-.53,1.25-6.4,9.1-7.71,10.53-.83.9-2.19,2-3.63,3.16-3.48,2.79-7.07,5.68-7.67,8.99-.81,4.47.37,19.52,2.2,23.92l.2.48.42.31c15.2,11.02,19.84,20.79,14.61,30.73Z" fill="currentColor"/>
  <path d="M592.64,73.11c-.47.22-.45,1.15-.27,1.55.61,1.31,8.71,4.35,10.76,5.8,10.91,7.72,15.87,20.94,18.39,34.92,3.97,22.03-6.82,45.46-24.29,53.98-.85.42-5.77,1.79-5.76,2.3.1,3.27,13.91.71,15.88.05,19.06-6.37,32.97-31.52,32.46-54.66-.66-30.01-22.79-50.78-47.18-43.93Z" fill="currentColor"/>
  <path d="M587.24,74.42c-.02-2.14-5.91-.78-7.15-.48-40.69,9.69-48.27,88.36-5.2,97.42,1.51.32,5.23.8,6.63.51.8-.17,1.16.11,1.06-1.26-.23-1.37-5-4.12-6.3-5.42-6.27-6.26-12.93-21.74-12.86-31.57.05-6.69.86-6.49-.11-14.13-.93-7.36,4.18-23.04,7.77-29.08,4.47-7.51,9.66-11.44,16.15-15.99Z" fill="currentColor"/>
  <path d="M171.91,176.19c-6.03-16.7-3.85-32.9-4.32-50.27-5.82-.53-11.46.36-17.13,1.89.15,1.95.32,3.89.51,5.83,1.18,13.21,4.25,27.27-2,39.75l-.18.46c-2.38,5.23,1.23,7.57,6.01,9.11,5.53,2.08,10.89,4.66,15.81,7.73,3.58,1.67,7.17,8.11,10.71,3.12.83-1.05.18-2.23-.58-3.57-2.53-4.46-7.25-10.07-8.84-14.07Z" fill="currentColor"/>
  <path d="M149.94,100.85c6.16.07,11.7,1.66,16.85,4.84,0-8.15.45-16.13,1.26-24.41.16-2.72-.28-5.52-1.13-8.11.77-1.93,1.87-3.77,3.44-5.46,4.07-4.4,8.34-8.18,13.44-11.04,3.09-1.35,4.85-5.82.76-6.85-7.7-.65-15.52-1.36-23.29-2.12-3.91-.6-7.68.88-8.7,4.76-.9,2.68-1.34,5.29-1.43,8.04-.06,1.77-.11,3.54-.16,5.32-1.06,1.4-2.05,3.29-2.93,5.73.73,8.65,1.9,17.38,2.04,26.12-.04,1.06-.09,2.11-.14,3.17Z" fill="currentColor"/>
</svg>